<svg width="1080" height="1080" viewBox="0 0 1080 1080" fill="none" xmlns="http://www.w3.org/2000/svg">
<rect width="1080" height="1080" fill="white"/>
<path d="M627.283 930.347C623.467 929.392 611.304 928.438 600.572 928.199C589.84 928.199 580.301 927.006 579.585 925.574C578.87 924.381 575.054 923.187 571.238 923.187C567.661 923.187 551.92 920.085 536.18 916.266C520.678 912.448 497.307 906.72 484.19 903.856C471.073 900.993 459.387 897.651 458.194 896.458C456.763 895.504 454.14 894.549 451.994 894.549C449.847 894.549 442.693 891.924 436.015 888.583C429.337 885.48 420.99 882.139 417.651 881.184C414.312 880.468 411.451 879.036 411.451 878.082C411.451 877.127 406.204 874.741 399.526 873.07C393.087 871.399 387.602 869.013 387.602 867.82C387.602 866.865 385.694 865.91 383.07 865.91C380.686 865.91 370.907 861.615 361.368 856.364C351.828 851.114 342.527 846.818 340.858 846.818C338.95 846.818 337.519 845.863 337.519 844.432C337.519 843.238 335.611 842.045 333.465 842.045C328.695 842.045 304.131 827.726 304.131 824.862C304.131 823.907 302.461 822.953 300.553 822.953C298.645 822.953 296.976 821.998 296.976 820.566C296.976 819.373 295.307 818.18 293.399 818.18C291.491 818.18 289.821 817.225 289.821 815.793C289.821 814.6 285.29 810.543 280.043 806.963C274.558 803.144 268.357 799.326 266.449 797.894C257.625 792.166 225.429 758.755 225.429 755.652C225.429 753.743 222.806 749.208 219.467 745.629C216.128 742.049 213.505 737.753 213.505 736.082C213.505 734.65 212.551 732.264 211.359 731.071C210.166 729.639 207.543 722.956 205.158 715.797C200.627 701.716 201.103 673.078 206.35 659.474C209.689 650.405 227.337 629.643 231.63 629.643C233.538 629.643 234.969 628.688 234.969 627.256C234.969 625.824 241.17 624.869 249.04 624.869C269.311 624.869 275.512 630.359 275.512 648.258C275.512 666.395 277.42 672.6 282.905 672.6C286.721 672.6 287.436 674.51 287.436 683.101C287.436 693.125 288.39 694.557 307.231 713.41C318.201 724.388 329.172 735.128 331.795 737.037C334.18 738.946 340.858 744.197 346.105 748.492C351.59 752.55 357.314 756.129 358.745 756.129C360.175 756.129 361.368 757.084 361.368 758.039C361.368 759.232 370.431 764.244 381.639 769.494C392.848 774.506 401.911 779.518 401.911 780.472C401.911 781.665 403.342 782.381 405.011 782.381C406.919 782.381 414.074 785.484 421.229 789.541C428.383 793.359 439.592 798.371 446.031 800.519C452.709 802.667 458.91 805.292 460.341 806.485C461.533 807.679 465.111 808.633 468.211 808.633C475.604 808.633 480.374 814.838 480.612 824.862C480.612 832.021 480.135 832.499 472.027 832.499C461.533 832.499 436.73 822.475 393.564 800.996C348.728 778.563 317.247 757.084 293.16 732.741C267.642 706.728 258.341 689.783 256.91 666.157C255.24 641.098 252.14 639.666 236.161 656.849C217.082 676.896 215.651 694.318 230.915 719.854C235.207 727.014 239.739 734.889 241.17 737.514C246.178 746.345 274.081 774.267 286.244 782.62C303.892 794.791 317.247 804.815 317.963 806.963C318.44 807.917 319.871 808.633 321.302 808.633C322.494 808.633 327.979 811.736 333.465 815.316C338.95 818.895 350.397 825.578 358.983 830.112C367.569 834.408 377.824 839.897 381.639 842.045C385.694 844.193 393.087 847.534 398.334 849.205C403.58 850.875 409.066 853.023 410.258 853.978C411.689 854.932 419.082 858.035 426.952 861.137C434.822 864.24 442.216 867.581 443.408 868.774C444.839 869.729 448.178 870.683 451.278 870.683C454.379 870.683 456.763 871.877 456.763 873.07C456.763 874.502 458.433 875.457 460.341 875.457C462.249 875.457 473.935 878.559 486.098 882.378C604.388 919.608 729.595 923.665 783.731 891.685C798.756 882.855 811.396 867.581 815.689 853.262C820.459 836.795 820.459 835.84 811.158 816.986C797.087 787.87 765.845 755.175 730.549 732.503C716.955 723.911 716.955 723.672 716.716 712.217C716.716 701.478 717.432 699.807 729.356 688.113C736.034 681.192 749.866 670.214 759.644 664.009C776.815 652.792 785.162 649.69 815.212 643.962C823.559 642.291 828.806 640.143 828.091 638.473C827.614 637.041 820.936 632.506 813.066 628.688C799.949 622.006 796.61 621.528 767.514 620.574L735.795 619.619V611.743C735.795 606.732 738.896 599.572 744.381 591.458C749.151 584.537 753.92 575.945 755.351 572.365C756.544 568.786 759.883 564.967 762.744 564.251C775.146 560.91 779.2 562.819 794.225 578.332C811.635 596.47 816.405 597.424 829.521 585.491C836.915 578.571 838.345 575.945 838.345 567.592C838.345 547.545 824.275 535.613 797.802 532.988C777.769 531.078 750.82 517.714 742.712 505.781C734.603 493.848 712.423 478.574 696.445 473.324C684.043 469.505 680.704 469.505 663.056 472.131C648.031 474.517 641.592 474.517 635.63 472.369C631.337 470.937 625.375 469.744 622.513 469.744C619.413 469.744 610.827 466.403 603.196 462.346C595.325 458.289 585.07 453.516 579.824 451.606C571.477 448.504 570.046 448.743 561.221 453.516C550.966 459.482 542.619 472.608 542.619 483.109C542.619 486.927 545.481 491.939 550.251 496.473C557.644 503.394 558.121 503.394 580.539 502.678L603.434 501.962L604.149 510.315C604.626 514.85 603.672 522.964 602.003 528.214C600.334 533.703 599.38 547.784 599.618 561.149L600.095 584.298H592.464C586.978 584.298 581.493 581.434 572.192 573.559C561.937 564.729 546.435 555.66 541.904 555.66C540.473 555.66 543.096 571.172 545.004 573.559C547.628 576.9 558.121 608.402 563.368 628.449C566.945 642.053 567.661 654.463 567.661 695.273C567.661 741.094 567.184 746.583 562.175 760.425C559.314 768.539 556.929 777.131 556.929 779.517C556.929 787.393 540.473 828.442 532.364 840.374C528.549 845.863 526.402 846.818 516.147 846.818H504.461V838.704C504.461 832.737 505.654 830.351 509.231 829.396C511.854 828.68 514.716 826.294 515.67 823.669C516.386 821.282 518.055 818.895 518.771 818.18C521.871 816.032 533.08 785.245 533.08 779.279C533.08 775.938 534.272 772.835 535.465 772.358C537.85 771.642 541.188 760.425 549.059 727.491C556.452 695.988 549.059 642.053 531.887 601.004C525.21 585.253 523.063 576.184 521.871 559.955C519.963 531.556 520.917 530.601 546.912 532.749C565.276 534.181 567.661 534.897 573.861 541.579L580.778 548.977V535.613V522.248H561.937C540.711 522.248 531.172 519.623 529.264 513.418C528.549 511.031 526.879 507.213 525.687 505.065C519.724 493.371 526.402 448.981 535.465 441.822C545.481 433.707 559.791 429.173 574.577 429.173C587.932 429.173 591.987 430.366 603.911 437.287C622.513 448.265 643.262 453.516 655.902 450.652C668.541 447.549 695.729 450.174 711.231 455.902C718.147 458.527 729.118 464.255 735.795 468.789C742.234 473.324 748.674 476.904 750.105 476.904C751.297 476.904 752.49 478.097 752.49 479.29C752.49 482.631 765.368 495.996 768.707 495.996C769.899 495.996 771.569 497.667 772.523 499.576C773.238 501.485 775.146 503.156 777.054 503.156C778.723 503.156 783.732 505.781 788.263 509.122C794.702 513.895 799.233 515.088 809.965 515.088C840.969 515.088 854.563 529.408 858.617 566.16C860.525 583.344 856.232 594.56 844.308 603.391C836.199 609.118 833.337 615.323 838.584 615.323C844.785 615.323 848.6 623.438 849.793 639.666C850.985 657.804 849.555 660.668 838.107 660.668C828.806 660.668 794.225 669.975 793.51 672.6C793.033 674.032 790.648 674.987 788.024 674.987C785.401 674.987 782.778 676.419 782.062 678.328C781.347 680.237 778.485 682.385 775.623 683.101C769.899 684.533 745.335 705.773 745.335 709.353C745.335 711.74 759.644 725.104 762.267 725.104C762.983 725.104 768.23 729.161 773.238 734.173C785.878 745.867 789.932 748.97 793.033 748.97C794.225 748.97 795.417 749.924 795.417 751.356C795.417 752.55 801.38 759.471 808.534 766.63C815.689 773.79 821.651 781.665 821.651 784.291C821.651 787.154 823.559 789.78 826.183 790.734C829.044 791.689 831.191 795.269 832.145 801.474C832.86 806.485 835.245 812.452 837.63 814.6C840.73 817.702 841.446 823.669 841.684 842.761C841.923 864.956 841.446 867.581 836.676 872.593C833.576 875.457 831.191 879.275 831.191 881.184C831.191 885.48 808.296 908.868 804.003 908.868C802.095 908.868 799.71 910.061 798.995 911.255C798.279 912.687 795.418 913.641 792.794 913.641C790.409 913.641 788.263 914.835 788.263 916.028C788.263 917.46 785.162 918.414 781.108 918.414C777.292 918.414 773.953 919.369 773.953 920.562C773.953 922.949 763.221 925.097 740.565 927.006C731.979 927.722 724.109 929.392 722.917 930.586C720.055 933.211 637.538 932.972 627.283 930.347Z" fill="#FEFAFC"/>
<path d="M617.271 866.147C593.661 862.328 592.707 861.851 592.707 853.26C592.707 844.191 595.33 840.134 612.263 822.712C626.095 808.392 653.045 776.413 660.915 764.719C663.777 760.662 671.408 751.593 678.086 744.91C689.295 733.216 691.203 732.262 701.458 732.262C711.236 732.262 713.621 733.455 722.445 742.524C736.277 756.843 751.302 779.277 755.833 792.641C762.75 813.404 760.126 827.723 747.009 841.565C736.993 852.066 731.507 854.691 707.182 861.135C684.764 866.863 638.735 869.488 617.271 866.147ZM677.371 845.384C689.295 843.236 699.788 840.611 701.219 839.418C702.412 838.224 706.466 837.27 710.044 837.27C715.052 837.27 720.06 833.928 728.884 825.098C740.332 813.404 740.809 812.927 738.185 805.051C736.754 800.756 734.131 796.46 732.223 795.744C730.315 795.028 728.646 792.88 728.646 790.732C728.646 788.584 726.261 784.288 723.399 780.947C709.328 765.673 702.173 758.514 700.504 758.514C697.642 758.752 689.772 766.389 680.948 777.606C669.023 793.119 668.546 793.835 661.392 801.472C657.576 805.051 654.714 809.347 654.714 810.779C654.714 812.211 653.76 813.404 652.329 813.404C651.137 813.404 649.944 815.313 649.944 817.939C649.944 820.325 644.698 827.008 638.02 832.735C631.581 838.463 626.095 843.952 626.095 844.907C626.095 849.918 650.66 850.157 677.371 845.384Z" fill="#FEFAFC"/>
<path d="M639.208 667.826C635.392 661.621 628.476 637.517 628.476 630.357C628.476 622.72 628.714 622.481 638.731 622.481C644.216 622.481 654.709 624.629 661.864 627.255C669.019 629.88 677.843 632.028 681.42 632.028C687.382 632.028 688.098 632.744 688.098 640.381C688.098 647.063 686.667 649.211 681.659 652.075C677.843 653.984 670.927 658.757 665.68 662.814C656.379 670.212 642.308 672.838 639.208 667.826Z" fill="#FEFAFC"/>
<path d="M287.436 385.023C287.436 377.147 287.913 376.67 295.783 376.67C303.653 376.67 304.13 377.147 304.13 385.023C304.13 392.898 303.653 393.376 295.783 393.376C287.913 393.376 287.436 392.898 287.436 385.023Z" fill="#FEFAFC"/>
<path d="M768.705 379.773C763.22 378.818 762.027 377.625 762.027 371.659C762.027 364.499 766.559 357.578 771.328 357.578C772.759 357.578 773.952 355.43 773.952 352.805C773.952 350.18 775.621 348.032 777.529 348.032C779.914 348.032 781.106 345.645 781.106 340.872C781.106 337.054 781.822 333.713 783.014 333.713C783.968 333.713 787.307 329.656 790.646 324.644C804.717 303.642 808.533 300.301 818.072 300.301C824.75 300.301 826.419 301.256 826.419 305.074C826.419 311.518 829.043 311.041 834.289 303.881L838.582 297.915H829.997C821.888 297.915 821.65 297.676 821.65 288.368C821.65 279.061 821.888 278.822 829.997 278.822C837.867 278.822 838.344 279.3 838.344 287.175C838.344 291.71 839.536 295.528 840.729 295.528C842.16 295.528 843.114 294.573 843.114 293.142C843.114 291.948 844.783 290.755 846.691 290.755C848.599 290.755 850.268 289.8 850.268 288.368C850.268 287.175 854.561 285.982 859.808 285.982C869.109 285.982 869.347 286.221 869.347 294.335C869.347 301.017 868.393 302.688 864.578 302.688C861.477 302.688 859.808 304.358 859.808 307.461C859.808 310.086 858.615 312.234 857.423 312.234C855.992 312.234 851.938 315.575 848.36 319.632C834.051 335.861 819.265 350.419 816.88 350.419C815.687 350.419 814.495 351.612 814.495 352.805C814.495 354.237 812.825 355.192 810.918 355.192C809.01 355.192 807.34 357.101 807.34 359.487C807.102 364.022 799.47 374.284 795.893 374.284C794.7 374.284 793.031 375.955 792.077 377.864C790.884 381.444 783.491 381.921 768.705 379.773Z" fill="#FEFAFC"/>
<path d="M199.199 370.941C199.199 364.259 200.153 362.588 204.685 361.633C208.5 360.917 207.785 360.44 202.3 360.201C194.907 359.963 194.43 359.485 194.43 351.61C194.43 344.212 195.145 343.257 200.392 343.257C203.492 343.257 213.27 340.632 222.094 337.291C231.157 333.949 243.081 331.324 249.521 331.324H261.207V342.064C261.207 348.03 260.253 352.803 258.822 352.803C257.629 352.803 256.437 354.712 256.437 357.099C256.437 362.111 250.713 367.838 243.32 370.702C234.496 374.043 212.316 378.816 205.877 379.055C199.915 379.055 199.199 378.339 199.199 370.941Z" fill="#FEFAFC"/>
<path d="M304.135 362.589C304.135 350.895 306.281 348.031 315.105 348.031C322.498 348.031 323.214 348.747 323.214 354.952C323.214 366.646 321.067 369.51 312.243 369.51C304.85 369.51 304.135 368.794 304.135 362.589Z" fill="#FEFAFC"/>
<path d="M709.566 351.849C709.566 346.599 708.85 346.36 698.834 347.553L688.102 348.747V340.394C688.102 332.757 688.817 331.802 695.495 330.37C703.842 328.7 709.566 323.927 709.566 318.438C709.566 316.29 710.758 314.619 711.95 314.619C713.381 314.619 714.335 311.517 714.335 307.459C714.335 303.641 715.528 300.3 716.72 300.3C718.151 300.3 719.105 298.152 719.105 295.527C719.105 292.902 720.298 290.754 721.49 290.754C722.921 290.754 723.875 288.367 723.875 285.503C723.875 279.537 729.122 263.308 731.745 260.683C732.699 259.729 733.414 256.387 733.414 253.285C733.414 248.512 734.607 247.796 742 247.796H750.824L749.155 260.922C747.962 271.661 748.201 273.571 751.063 272.616C752.971 271.9 755.832 268.082 757.263 264.502C762.033 253.046 767.995 247.796 776.104 247.796C783.02 247.796 783.497 248.273 783.497 256.149C783.497 260.683 782.543 264.502 781.351 264.502C780.158 264.502 778.25 267.366 776.819 271.184C775.627 274.764 772.288 280.253 769.426 283.355C766.803 286.458 764.418 289.799 764.418 290.515C764.418 291.231 762.033 294.572 758.933 297.913C755.832 301.254 750.347 308.891 746.77 315.335C743.192 321.54 739.377 326.552 738.184 326.552C737.23 326.552 735.084 329.893 733.414 333.711C731.745 337.769 729.599 340.871 728.406 340.871C727.214 340.871 726.26 344.69 726.26 349.224C726.26 357.1 725.783 357.577 717.913 357.577C710.758 357.577 709.566 356.861 709.566 351.849Z" fill="#FEFAFC"/>
<path d="M151.502 342.065C151.502 334.189 151.979 333.712 159.849 333.712C167.719 333.712 168.196 334.189 168.196 342.065C168.196 349.94 167.719 350.418 159.849 350.418C151.979 350.418 151.502 349.94 151.502 342.065Z" fill="#FEFAFC"/>
<path d="M309.138 327.266C307.468 322.254 305.56 314.14 304.845 309.367C303.652 300.298 303.652 300.298 311.999 300.298C318.916 300.298 320.823 301.491 323.208 307.457C324.878 311.515 327.74 314.617 329.409 314.617C333.94 314.617 333.702 328.22 329.409 332.755C327.501 334.664 322.97 336.096 319.154 336.096C313.669 336.096 311.999 334.664 309.138 327.266Z" fill="#FEFAFC"/>
<path d="M900.354 322.97C900.354 315.094 900.831 314.617 908.702 314.617C916.572 314.617 917.049 315.094 917.049 322.97C917.049 330.846 916.572 331.323 908.702 331.323C900.831 331.323 900.354 330.846 900.354 322.97Z" fill="#FEFAFC"/>
<path d="M924.206 313.426C924.206 305.551 924.683 305.073 932.553 305.073C940.423 305.073 940.9 305.551 940.9 313.426C940.9 321.302 940.423 321.779 932.553 321.779C924.683 321.779 924.206 321.302 924.206 313.426Z" fill="#FEFAFC"/>
<path d="M480.613 289.556C480.613 281.68 481.09 281.203 488.96 281.203C496.831 281.203 497.307 281.68 497.307 289.556C497.307 297.432 496.831 297.909 488.96 297.909C481.09 297.909 480.613 297.432 480.613 289.556Z" fill="#FEFAFC"/>
<path d="M191.088 289.322C187.988 280.969 189.657 271.184 194.427 269.991C197.05 269.275 199.197 267.604 199.197 266.411C199.197 259.967 222.568 247.796 235.208 247.796C244.271 247.796 244.509 248.035 244.509 255.91C244.509 261.638 243.317 264.502 240.455 265.218C238.07 265.934 239.74 266.411 244.032 266.65C251.187 266.888 251.664 267.366 251.664 275.241C251.664 283.594 251.664 283.594 240.932 283.594C234.97 283.594 230.2 284.31 230.2 285.503C230.2 292.663 193.711 296.243 191.088 289.322Z" fill="#FEFAFC"/>
<path d="M552.162 284.787C552.162 276.912 552.639 276.435 560.509 276.435C568.379 276.435 568.856 276.912 568.856 284.787C568.856 292.663 568.379 293.14 560.509 293.14C552.639 293.14 552.162 292.663 552.162 284.787Z" fill="#FEFAFC"/>
<path d="M366.616 277.152L367.331 265.697L378.779 264.981L389.988 264.265V272.856C389.988 283.834 385.456 288.369 374.486 288.369H365.9L366.616 277.152Z" fill="#FEFAFC"/>
<path d="M265.973 275.237C265.973 267.361 266.45 266.884 274.32 266.884C282.19 266.884 282.667 267.361 282.667 275.237C282.667 283.112 282.19 283.59 274.32 283.59C266.45 283.59 265.973 283.112 265.973 275.237Z" fill="#FEFAFC"/>
<path d="M304.135 277.864C304.135 275 304.85 265.693 305.566 257.578C307.235 243.498 307.474 243.021 313.913 243.021C328.938 243.021 331.084 248.51 324.406 271.182C320.829 283.114 320.352 283.592 312.482 283.592C305.327 283.592 304.135 282.876 304.135 277.864Z" fill="#FEFAFC"/>
<path d="M650.895 277.866C650.18 275.956 649.941 271.422 650.418 267.604C651.134 261.398 651.849 260.921 663.773 260.205L676.175 259.489V270.229V281.207H664.25C656.142 281.207 651.849 280.014 650.895 277.866Z" fill="#FEFAFC"/>
<path d="M472.509 275C471.794 272.852 471.078 268.079 471.078 264.261C471.078 258.056 471.794 257.34 479.187 257.34C488.011 257.34 490.157 260.204 490.157 271.898C490.157 278.103 489.442 278.819 482.049 278.819C476.802 278.819 473.463 277.387 472.509 275Z" fill="#FEFAFC"/>
<path d="M840.734 260.917C840.734 253.042 841.211 252.564 849.081 252.564C856.952 252.564 857.429 253.042 857.429 260.917C857.429 268.793 856.952 269.27 849.081 269.27C841.211 269.27 840.734 268.793 840.734 260.917Z" fill="#FEFAFC"/>
<path d="M878.891 260.922C878.891 253.524 879.606 252.569 884.853 252.569C888.192 252.569 890.815 251.614 890.815 250.182C890.815 248.989 894.631 247.796 899.162 247.796C907.032 247.796 907.509 248.273 907.509 256.149C907.509 263.547 906.794 264.502 901.547 264.502C898.208 264.502 895.585 265.695 895.585 266.888C895.585 268.32 891.769 269.275 887.238 269.275C879.368 269.275 878.891 268.797 878.891 260.922Z" fill="#FEFAFC"/>
<path d="M592.707 246.601C592.707 239.203 593.422 238.249 598.669 238.249C603.678 238.249 604.631 237.055 604.631 231.566C604.631 224.645 609.401 218.679 617.271 216.054C619.418 215.099 621.326 212.235 621.326 209.61C621.326 205.792 622.995 204.837 628.719 204.837C637.781 204.837 642.551 210.326 642.79 220.588C642.79 227.27 641.359 228.702 630.15 234.43C622.995 237.771 615.602 240.635 613.456 240.635C610.594 240.635 609.401 242.783 609.401 247.795C609.401 254.477 608.686 254.954 601.054 254.954C593.184 254.954 592.707 254.477 592.707 246.601Z" fill="#FEFAFC"/>
<path d="M234.968 237.054C234.968 229.178 235.445 228.701 243.315 228.701C251.185 228.701 251.662 229.178 251.662 237.054C251.662 244.93 251.185 245.407 243.315 245.407C235.445 245.407 234.968 244.93 234.968 237.054Z" fill="#FEFAFC"/>
<path d="M428.146 237.054C428.146 229.178 428.622 228.701 436.493 228.701C444.363 228.701 444.84 229.178 444.84 237.054C444.84 244.93 444.363 245.407 436.493 245.407C428.622 245.407 428.146 244.93 428.146 237.054Z" fill="#FEFAFC"/>
<path d="M571.237 227.509C571.237 219.634 571.714 219.156 579.584 219.156C587.455 219.156 587.932 219.634 587.932 227.509C587.932 235.385 587.455 235.862 579.584 235.862C571.714 235.862 571.237 235.385 571.237 227.509Z" fill="#FEFAFC"/>
<path d="M223.045 217.965C223.045 210.09 223.522 209.612 231.392 209.612C239.262 209.612 239.739 210.09 239.739 217.965C239.739 225.841 239.262 226.318 231.392 226.318C223.522 226.318 223.045 225.841 223.045 217.965Z" fill="#FEFAFC"/>
<path d="M294.595 217.965C294.595 210.09 295.072 209.612 302.942 209.612C310.812 209.612 311.289 210.09 311.289 217.965C311.289 225.841 310.812 226.318 302.942 226.318C295.072 226.318 294.595 225.841 294.595 217.965Z" fill="#FEFAFC"/>
<path d="M733.417 217.965C733.417 210.09 733.894 209.612 741.764 209.612C749.634 209.612 750.111 210.09 750.111 217.965C750.111 225.841 749.634 226.318 741.764 226.318C733.894 226.318 733.417 225.841 733.417 217.965Z" fill="#FEFAFC"/>
<path d="M580.778 208.415C580.778 200.54 581.255 200.062 589.125 200.062C596.996 200.062 597.473 200.54 597.473 208.415C597.473 216.291 596.996 216.768 589.125 216.768C581.255 216.768 580.778 216.291 580.778 208.415Z" fill="#FEFAFC"/>
<path d="M800.189 203.646C800.189 195.77 800.666 195.293 808.537 195.293C816.407 195.293 816.884 195.77 816.884 203.646C816.884 211.521 816.407 211.999 808.537 211.999C800.666 211.999 800.189 211.521 800.189 203.646Z" fill="#FEFAFC"/>
<path d="M514.006 198.87C514.006 190.995 514.483 190.518 522.353 190.518C530.223 190.518 530.7 190.995 530.7 198.87C530.7 206.746 530.223 207.223 522.353 207.223C514.483 207.223 514.006 206.746 514.006 198.87Z" fill="#FEFAFC"/>
<path d="M409.064 194.096C409.064 186.22 409.541 185.743 417.412 185.743C425.282 185.743 425.759 186.22 425.759 194.096C425.759 201.972 425.282 202.449 417.412 202.449C409.541 202.449 409.064 201.972 409.064 194.096Z" fill="#FEFAFC"/>
<path d="M323.21 189.327C323.21 181.451 323.687 180.974 331.557 180.974C339.427 180.974 339.904 181.451 339.904 189.327C339.904 197.202 339.427 197.679 331.557 197.679C323.687 197.679 323.21 197.202 323.21 189.327Z" fill="#FEFAFC"/>
<path d="M709.565 189.327C709.565 181.451 710.042 180.974 717.913 180.974C725.783 180.974 726.26 181.451 726.26 189.327C726.26 197.202 725.783 197.679 717.913 197.679C710.042 197.679 709.565 197.202 709.565 189.327Z" fill="#FEFAFC"/>
<path d="M642.787 175.007V166.654H660.674H678.56V175.007V183.36H660.674H642.787V175.007Z" fill="#FEFAFC"/>
<path d="M525.929 172.616C525.929 168.082 527.121 164.263 528.314 164.263C529.745 164.263 530.698 162.593 530.698 160.683C530.698 158.297 533.322 157.104 539.046 157.104C546.916 157.104 547.393 157.581 547.393 165.456C547.393 169.991 546.439 173.809 545.008 173.809C543.815 173.809 542.623 175.48 542.623 177.389C542.623 179.776 540 180.969 534.276 180.969C526.406 180.969 525.929 180.492 525.929 172.616Z" fill="#FEFAFC"/>
<path d="M437.687 166.416C437.687 157.108 442.456 152.335 451.757 152.335C458.435 152.335 459.151 153.051 459.151 159.733C459.151 169.041 454.381 173.814 445.08 173.814C438.402 173.814 437.687 173.098 437.687 166.416Z" fill="#FEFAFC"/>
<path d="M499.693 166.652C499.693 165.459 496.593 164.265 492.538 164.265C485.861 164.265 485.384 163.549 485.384 155.912C485.384 148.037 485.861 147.56 493.731 147.56C498.262 147.56 502.078 148.753 502.078 149.946C502.078 151.378 505.417 152.333 509.233 152.333C515.91 152.333 516.387 153.049 516.387 160.686C516.387 168.561 515.91 169.038 508.04 169.038C503.509 169.038 499.693 168.084 499.693 166.652Z" fill="#FEFAFC"/>
<path d="M586.98 165.22C586.264 163.072 585.549 158.299 585.549 154.481C585.549 148.276 586.264 147.56 592.942 147.56C602.243 147.56 607.013 152.333 607.013 161.64C607.013 168.561 606.536 169.038 597.712 169.038C591.511 169.038 587.934 167.845 586.98 165.22Z" fill="#FEFAFC"/>
<path d="M499.694 839.894C495.639 832.257 496.832 823.665 504.225 809.107C514.241 788.822 524.974 755.171 528.551 732.738C531.174 715.793 530.936 708.872 527.358 681.188C523.066 647.061 519.727 633.219 499.217 566.396C492.062 542.769 484.669 516.04 482.999 506.732C479.184 485.015 477.991 481.673 476.56 486.446C476.083 488.356 474.652 492.174 473.46 494.799C469.644 504.107 463.92 545.155 463.443 565.202C463.443 576.419 464.159 598.137 465.113 613.649L467.021 641.572H457.72C451.28 641.572 441.502 638.231 426.001 630.355C404.775 619.377 402.867 618.9 384.265 618.9C366.855 618.9 363.278 619.854 346.822 627.969C336.806 632.98 325.597 640.379 321.781 644.197L314.865 651.357L330.367 649.925C353.739 647.538 379.734 652.073 401.198 662.096C426.716 674.267 456.527 704.099 470.598 731.306C485.623 760.422 494.924 807.914 488.723 823.904C487.054 828.438 469.644 829.154 463.92 825.097C461.059 823.188 461.774 822.949 467.021 823.904C473.221 825.336 473.46 825.097 470.598 820.563C468.929 817.937 466.305 816.267 464.874 816.744C463.443 817.221 461.059 810.539 459.389 800.516C455.096 777.605 446.749 756.126 436.733 742.284C415.03 713.168 409.783 707.44 393.805 696.701C372.579 682.62 366.617 680.234 345.868 677.609C327.982 675.461 319.158 676.654 307.233 682.859C302.94 685.246 294.116 686.916 287.439 686.916C275.753 686.916 275.037 686.439 271.698 678.563C264.305 660.664 270.506 646.584 295.07 625.582C314.626 609.115 314.626 609.115 318.442 607.683C320.35 607.206 316.773 602.91 308.426 596.227C301.033 590.738 290.539 578.806 284.815 570.214L274.322 554.463L274.56 521.051C274.56 490.026 275.037 486.685 280.999 474.514C291.493 452.319 316.057 430.363 336.329 424.635C341.576 423.203 357.554 422.01 371.625 422.01C395.713 422.01 398.336 422.487 412.168 429.408C420.277 433.704 432.201 442.295 438.641 448.5C445.08 454.944 451.28 460.194 452.234 460.194C453.188 460.194 455.096 457.092 456.289 453.035C461.058 439.909 469.406 433.942 482.999 433.942C493.97 433.942 495.401 434.658 499.694 441.818C502.317 445.875 504.94 452.796 505.417 456.615C510.903 494.799 516.149 518.665 524.974 545.633C528.074 555.179 530.697 565.441 530.697 568.544C530.697 571.646 532.844 578.806 535.467 584.772C539.521 594.08 548.822 631.548 554.546 663.051C555.739 669.017 556.692 687.871 556.692 705.054C556.931 730.113 555.977 739.42 552.161 751.353C549.538 759.467 547.391 768.297 547.391 770.684C547.391 772.832 545.722 776.412 543.814 778.559C541.906 780.469 540.237 784.287 540.237 787.151C540.237 792.64 528.789 823.188 525.927 825.336C525.212 826.052 523.781 828.438 522.827 830.825C521.873 832.973 518.773 836.075 515.911 837.268L510.426 839.416H515.672C518.534 839.655 522.589 837.268 524.497 834.405C527.12 830.825 528.312 830.109 528.312 832.734C528.312 843.235 504.702 848.962 499.694 839.894ZM393.328 581.192C415.269 571.169 432.917 547.781 436.971 523.677C439.356 509.357 429.578 487.401 413.838 472.127C391.897 450.41 369.956 445.637 345.868 456.853C310.572 473.559 292.685 511.982 306.041 542.053C311.765 554.702 328.22 573.555 338.475 578.806C360.178 590.261 372.579 590.738 393.328 581.192Z" fill="#F7FCFF"/>
<path d="M530.936 824.146C530.936 822.953 532.366 819.134 534.274 815.793C536.182 812.452 537.613 811.02 537.613 812.213C537.613 813.645 536.182 817.225 534.274 820.566C532.366 823.908 530.936 825.578 530.936 824.146Z" fill="#F7FCFF"/>
<path d="M615.357 861.856C603.91 858.992 606.295 856.128 618.935 858.037C651.607 862.81 703.598 857.083 725.062 846.343C733.648 841.809 747.718 827.012 750.103 819.137C754.873 805.295 739.371 774.031 716.238 750.643C705.744 740.142 705.267 738.471 712.661 740.619C718.384 742.29 731.024 754.461 731.024 758.041C731.024 759.473 734.363 763.769 738.179 768.064C742.233 772.36 745.334 776.656 745.334 778.088C745.334 779.281 746.765 781.906 748.672 783.816C753.204 788.111 758.212 812.216 756.304 820.807C754.635 829.399 733.409 850.878 724.585 853.025C721.008 853.98 711.945 856.128 704.79 858.276C691.674 861.856 625.135 864.481 615.357 861.856Z" fill="#FAFAFA"/>
<path d="M621.326 854.452C610.594 851.111 612.502 843.713 627.527 829.155C635.159 821.756 641.598 814.119 641.836 811.972C642.313 809.585 643.983 806.96 645.652 806.005C647.322 804.812 647.799 803.857 646.606 803.857C645.414 803.857 648.037 800.039 652.568 795.504C657.1 790.97 661.869 785.958 663.062 784.288C664.493 782.617 669.263 776.412 673.794 770.446C690.011 749.683 700.028 743.716 707.898 750.637C711.237 753.74 712.191 753.979 710.76 751.353C709.567 749.206 710.76 749.444 713.86 752.308C716.722 754.933 719.107 758.274 719.107 760.184C719.107 762.093 720.299 762.809 721.492 762.093C722.923 761.377 723.876 762.093 723.876 764.002C723.876 765.911 726.977 770.923 731.031 775.219C734.847 779.515 737.47 783.81 736.755 785.004C736.039 786.197 737.232 787.868 739.14 788.583C743.194 790.254 747.964 802.664 748.202 812.688C748.441 823.427 721.015 849.918 714.098 845.622C712.906 844.667 710.521 845.145 708.852 846.576C707.182 847.77 702.651 849.44 698.835 850.156C694.781 850.872 689.057 852.304 685.718 853.02C676.656 855.407 628.004 856.361 621.326 854.452Z" fill="#FAFAFA"/>
<path d="M602.242 842.523C602.242 839.659 603.435 837.273 604.627 837.273C606.058 837.273 607.012 835.602 607.012 833.693C607.012 831.784 607.966 830.113 608.92 830.113C613.213 830.113 631.576 811.737 634.677 804.1C636.585 799.565 641.354 792.644 645.17 788.587C655.664 777.848 666.157 765.438 670.45 758.517C675.22 751.119 685.236 743.004 692.391 740.856C696.445 739.424 694.776 742.288 685.475 751.835C678.797 758.756 670.927 767.824 668.065 771.881C661.864 781.189 634.915 813.646 623.229 826.056C618.221 831.306 614.882 836.557 615.836 837.989C616.552 839.421 616.075 839.659 614.644 838.705C613.213 837.989 609.874 839.659 607.25 842.523L602.242 847.774V842.523Z" fill="#FAFAFA"/>
<path d="M637.774 656.61C636.582 653.03 635.628 646.586 636.105 642.291C636.82 634.654 637.059 634.892 641.829 648.496C645.883 659.951 646.121 663.053 643.498 663.053C641.829 663.053 639.205 660.19 637.774 656.61Z" fill="#FAFAFA"/>
<path d="M659.722 654.699C670.931 645.869 673.793 644.675 673.793 648.971C673.793 653.505 661.153 663.052 654.952 663.052C649.944 663.052 650.421 662.097 659.722 654.699Z" fill="#FAFAFA"/>
<path d="M645.173 649.688C642.073 641.812 642.073 634.414 645.173 634.414C646.604 634.414 652.089 636.562 657.336 639.426L667.114 644.199L660.198 650.165C651.612 657.564 648.035 657.325 645.173 649.688Z" fill="#FAFAFA"/>
<path d="M649.942 632.979L634.44 627.49H644.695C650.419 627.251 659.005 629.399 664.252 632.024C681.9 641.093 673.553 641.57 649.942 632.979Z" fill="#FAFAFA"/>
<path d="M424.088 605.536C414.31 602.672 413.356 601.001 418.126 595.035C423.611 588.352 437.682 577.136 440.305 577.136C441.498 577.136 442.452 584.057 442.452 592.648C442.452 609.831 441.498 610.547 424.088 605.536Z" fill="#FAFAFA"/>
<path d="M808.54 601.721C802.816 600.289 789.938 591.459 791.369 590.027C791.846 589.549 797.331 591.22 803.293 593.845C813.31 598.38 814.979 598.38 820.942 595.277C830.243 590.504 840.021 580.719 841.929 574.514C844.552 566.4 838.59 549.694 830.004 541.341C823.088 534.659 819.511 533.466 803.293 531.318C793.038 530.124 782.068 527.499 778.729 525.59C775.39 523.919 768.951 520.578 764.42 518.43C755.834 514.612 738.186 497.906 738.186 493.61C738.186 492.178 736.994 491.224 735.324 491.224C733.893 491.224 729.123 488.36 724.592 485.019C720.299 481.678 710.521 476.189 702.89 472.609C691.442 467.358 686.195 466.404 669.024 466.404C656.384 466.404 651.376 465.926 655.907 464.733C670.455 461.392 692.873 462.585 706.228 467.358C721.969 472.847 742.002 487.167 749.872 498.861C757.981 510.555 785.168 523.919 804.963 525.829C832.628 528.454 846.46 541.103 846.46 564.013C846.698 580.958 844.313 586.924 835.012 594.561C826.188 601.243 816.887 603.869 808.54 601.721Z" fill="#FAFAFA"/>
<path d="M750.104 595.992C750.104 593.844 752.251 590.264 754.874 587.877C757.736 585.252 759.644 580.479 759.644 575.467C759.644 567.592 759.883 567.592 770.376 567.592C776.338 567.592 781.108 568.308 781.108 569.501C781.108 570.456 781.824 573.797 782.777 577.138L784.208 583.104L778.962 576.661C772.522 568.785 765.606 570.217 762.029 580.479C758.69 590.025 750.343 601.242 750.104 595.992Z" fill="#FAFAFA"/>
<path d="M768.469 579.045C767.754 576.658 768.469 574.749 770.377 574.749C772.047 574.749 773.955 576.658 774.432 579.045C775.147 581.67 774.432 583.579 772.524 583.579C770.854 583.579 768.946 581.431 768.469 579.045Z" fill="#FAFAFA"/>
<path d="M564.558 561.388C549.771 546.352 558.118 548.5 577.436 564.729C586.022 571.888 586.26 572.366 580.775 572.127C577.197 571.888 570.758 567.593 564.558 561.388Z" fill="#FAFAFA"/>
<path d="M591.514 557.325C590.321 546.585 591.037 537.755 593.66 527.016C595.806 518.663 596.999 511.264 596.045 510.548C595.329 509.832 584.836 509.594 572.673 509.832C551.209 510.787 550.732 510.548 543.1 503.627C536.184 497.184 535.469 495.036 535.469 483.103C535.469 465.204 541.669 453.51 554.548 446.112C567.903 438.475 580.066 440.145 605.346 452.794C616.078 458.044 627.525 462.579 630.864 462.818C634.203 462.818 638.973 464.011 641.596 465.204C644.697 466.636 640.881 466.875 629.91 465.92C617.032 464.727 609.639 462.579 595.568 454.942C575.535 444.202 568.38 443.964 554.071 453.271C547.632 457.567 545.008 461.624 541.669 472.364C538.808 481.91 538.331 487.399 540 490.501C541.192 492.888 542.862 496.706 543.577 499.093C545.724 506.253 556.456 508.401 579.351 506.73L600.338 505.059L598.668 516.753C597.714 522.958 596.999 538.232 596.999 550.404C597.237 575.462 593.898 579.758 591.514 557.325Z" fill="#FAFAFA"/>
<path d="M364.235 290.274C360.18 286.217 360.657 265.693 364.712 262.352C366.619 260.681 373.536 259.727 380.929 260.204L393.569 260.92L394.284 270.943C395 279.296 393.807 282.399 389.037 287.172C382.598 293.616 369.243 295.286 364.235 290.274ZM377.352 277.864C376.398 275.478 377.113 274.762 379.498 275.716C381.167 276.432 382.837 275.716 382.837 274.046C382.837 269.75 374.728 272.375 373.774 277.148C373.297 279.296 374.251 281.206 375.682 281.206C377.351 281.206 378.067 279.535 377.352 277.864Z" fill="#FAFAFA"/>
<path d="M649.231 285.024C645.892 282.399 645.177 279.057 645.654 269.989L646.369 258.533H664.256H682.143L682.858 268.079C683.335 273.568 682.143 279.535 680.235 282.16C675.942 288.126 655.432 290.036 649.231 285.024Z" fill="#FAFAFA"/>
<path d="M635.395 919.842C634.918 919.365 628.002 918.41 620.132 917.694C612.262 916.74 605.584 916.262 605.345 916.024C604.868 916.024 604.63 914.353 604.63 912.444C604.63 908.387 619.655 907.671 648.273 910.535C661.629 911.728 664.252 912.683 664.252 916.262C664.252 920.081 662.344 920.797 650.42 920.797C642.788 920.797 635.872 920.32 635.395 919.842Z" fill="#FCF3F5"/>
<path d="M685.717 916.503C685.717 912.685 689.055 911.73 712.666 909.344C757.502 904.809 788.267 891.922 803.292 871.398C821.894 845.623 819.986 828.44 795.183 795.506C778.727 773.788 772.527 767.583 743.192 743.718C740.569 741.331 732.222 735.603 725.067 730.83C713.381 722.955 711.95 721.045 711.95 713.886C711.95 703.146 714.574 698.373 729.36 684.293C749.393 664.723 772.765 651.597 796.852 646.108C827.14 638.948 825.471 639.664 821.417 635.846C819.509 633.937 811.162 630.118 802.576 627.254C788.505 622.481 784.212 622.242 757.979 623.674L728.645 625.345V616.753C728.645 610.548 731.029 605.059 737.23 596.945C741.761 590.979 748.201 580.955 751.301 574.75C757.502 562.579 760.602 560.431 772.288 560.431C778.012 560.431 782.782 563.772 795.66 575.943C804.484 584.535 813.547 591.456 816.17 591.456C822.609 591.217 830.718 583.58 834.772 573.796C843.358 553.51 822.609 534.656 791.844 534.179C785.405 534.179 777.296 532.508 773.957 530.599C770.619 528.69 763.464 524.871 757.74 522.008C752.017 519.144 745.577 514.132 743.431 510.791C736.276 500.051 720.775 486.209 708.373 479.766C697.164 473.561 694.779 473.322 667.83 474.038C634.919 474.754 611.785 471.174 599.861 463.299C586.028 454.468 571.719 450.173 565.757 453.275C556.694 458.048 550.017 465.447 547.393 473.561C544.054 483.584 535.469 485.016 535.469 475.709C535.469 465.208 543.816 452.082 554.548 446.116C567.903 438.717 581.02 440.149 602.961 451.605C617.986 459.719 638.257 465.685 647.558 465.447C649.466 465.208 660.198 464.492 671.407 463.537C688.579 462.344 693.825 462.821 705.75 467.117C721.967 472.845 742 487.164 749.87 498.858C757.979 510.552 785.167 523.917 804.723 525.826C828.81 528.213 840.973 536.566 845.743 553.987C849.558 568.307 846.22 584.058 837.395 592.172C820.224 608.162 807.346 606.491 787.074 585.728C771.573 569.738 766.326 568.307 762.51 579.523C761.079 583.103 756.071 591.933 751.301 598.854L742.477 611.742L774.435 613.174C802.576 614.367 807.584 615.321 819.986 621.288C834.534 628.209 839.065 633.698 837.872 642.289C837.395 646.347 834.772 648.017 825.233 650.165C818.793 651.597 806.869 654.461 799.237 656.131C774.911 661.62 723.636 699.805 723.875 712.215C724.113 715.079 729.122 720.091 737.707 725.341C786.359 756.605 826.425 807.2 826.425 837.27C826.425 871.398 805.2 897.172 766.803 909.582C752.97 914.117 710.042 920.799 694.779 920.799C687.625 920.799 685.717 919.844 685.717 916.503Z" fill="#FCF3F5"/>
<path d="M574.821 913.401C569.575 911.969 550.734 907.673 533.086 903.855C515.438 899.798 490.873 893.354 478.949 889.535C466.786 885.717 455.1 882.614 453.192 882.614C451.284 882.614 449.615 881.66 449.615 880.228C449.615 879.035 447.23 877.841 444.13 877.841C441.029 877.841 437.69 876.887 436.259 875.932C435.067 874.739 427.674 871.398 419.804 868.295C411.934 865.193 404.54 862.09 403.109 861.136C401.917 860.181 396.432 858.033 391.185 856.363C385.938 854.692 378.545 851.351 374.491 849.203C370.675 847.055 360.42 841.566 351.834 837.27C343.249 832.736 331.801 826.053 326.316 822.474C320.831 818.894 315.346 815.791 314.153 815.791C312.722 815.791 311.291 815.075 310.814 814.121C310.099 811.973 296.744 801.949 279.095 789.778C266.932 781.425 239.029 753.503 234.021 744.672C232.59 742.047 228.059 734.171 223.766 727.012C213.749 709.829 209.934 690.259 213.511 674.747C215.657 665.916 219.473 659.711 228.774 649.926C250.715 626.777 262.163 629.641 264.071 658.995C265.502 682.622 274.803 699.567 300.321 725.58C324.408 749.923 355.889 771.402 400.725 793.835C446.276 816.507 470.84 826.531 474.179 823.19C478.472 818.894 480.618 820.326 480.618 827.724C480.618 834.168 479.903 834.884 472.51 834.884C443.891 834.884 304.137 758.514 304.137 742.763C304.137 740.854 302.229 739.422 300.082 739.422C293.882 739.422 271.464 713.409 262.401 695.509C255.485 681.906 254.054 676.417 254.054 664.007C254.054 655.893 252.862 648.256 251.431 647.301C247.853 645.153 233.544 659.711 227.82 671.405C221.858 683.577 221.858 693.123 227.343 707.919C237.121 733.456 265.74 765.674 302.467 792.642C324.647 808.87 372.583 836.077 396.909 846.1C408.118 850.635 422.904 856.84 429.343 859.942C460.108 873.784 531.416 894.547 579.114 903.139C598.432 906.719 602.248 908.151 602.248 911.73C602.248 915.072 600.34 916.026 593.423 915.787C588.415 915.549 580.068 914.594 574.821 913.401Z" fill="#FCF3F5"/>
<path d="M608.208 867.1C607.016 866.623 601.769 865.668 596.999 864.714C588.175 863.282 587.937 863.043 587.937 853.258C587.937 844.189 589.129 841.803 598.669 832.734C609.639 822.472 642.55 784.764 660.676 762.092C665.922 755.649 675.223 745.148 681.186 738.943C690.487 729.397 693.826 727.487 700.98 727.487C724.591 727.487 765.134 788.106 761.079 817.46C757.979 840.132 740.331 855.167 707.419 863.282C682.855 869.487 652.328 870.203 652.328 864.714C652.328 862.804 653.759 861.134 655.429 860.895C675.939 859.702 714.574 851.588 725.068 846.337C733.653 841.803 747.724 827.006 750.109 819.131C752.017 813.403 751.778 809.107 748.678 800.038C741.762 779.275 710.52 739.42 701.457 739.42C697.164 739.42 676.416 759.706 668.069 771.877C660.199 783.571 633.249 815.551 619.179 830.109C601.769 848.008 598.669 853.019 603.438 854.69C607.254 856.361 627.049 858.986 647.082 860.895C648.513 860.895 649.944 862.804 649.944 864.714C649.944 867.577 646.366 868.293 630.387 868.055C619.417 868.055 609.639 867.577 608.208 867.1Z" fill="#FCF3F5"/>
<path d="M504.465 840.612C504.465 832.259 504.703 832.021 508.758 835.6C515.197 841.328 520.205 840.612 525.213 833.214C533.322 821.281 549.778 780.233 549.778 772.357C549.778 769.97 552.163 761.379 555.024 753.265C559.794 739.9 560.51 733.695 560.51 695.272C560.51 661.383 559.556 648.734 556.217 635.608C550.732 615.084 540.477 584.059 537.853 580.718C536.661 579.286 534.991 571.649 534.037 563.296C532.368 547.545 532.368 547.306 545.008 548.499C555.263 549.215 566.233 555.182 580.066 566.876L593.183 578.331L591.752 559.239C590.559 545.158 591.036 536.328 593.898 526.066C595.806 518.429 596.998 511.269 596.045 510.553C595.329 509.837 584.836 509.599 572.673 509.837C551.209 510.792 550.732 510.553 543.1 503.632C534.276 495.279 532.368 484.062 540 484.062C542.623 484.062 545.246 486.21 546.2 488.597C549.062 497.666 553.594 498.859 580.781 498.62L607.015 498.143V510.314C607.015 516.997 605.346 528.452 603.199 536.328C599.622 548.976 599.622 551.124 603.199 563.296C605.346 570.694 607.015 580.002 607.015 584.059C607.015 590.98 606.538 591.457 598.429 591.457C591.513 591.457 586.982 589.309 577.442 581.195C563.133 568.785 545.008 557.091 543.338 559C542.623 559.716 545.723 569.739 550.493 581.195C565.279 618.425 569.095 638.472 570.526 682.146C571.48 721.762 570.288 733.934 560.748 774.982C556.217 794.791 543.816 826.293 535.707 838.464C529.745 847.294 528.552 848.01 516.866 848.726L504.465 849.442V840.612Z" fill="#FCF3F5"/>
<path d="M633.245 657.801C630.383 649.448 627.044 641.811 625.851 640.618C624.659 639.186 623.705 633.697 623.705 627.969V617.707H633.96C639.445 617.707 650.416 620.332 658.286 623.673C666.395 627.015 677.365 629.64 684.043 629.64C695.252 629.64 695.252 629.64 695.252 637.754C695.252 645.391 693.821 646.823 675.219 659.233C660.432 669.018 653.039 672.598 646.839 672.598C638.968 672.598 638.491 672.12 633.245 657.801ZM669.972 648.016C680.465 641.095 681.181 640.379 675.934 639.663C672.834 639.425 663.056 636.799 654.232 633.936C645.169 631.072 637.537 629.401 636.822 630.117C635.63 631.31 643.261 655.892 646.362 660.903C647.554 662.574 649.7 662.097 653.039 659.472C655.901 657.324 663.533 652.312 669.972 648.016Z" fill="#FCF3F5"/>
<path d="M651.133 919.13C632.292 916.982 628.477 915.789 628.477 911.971C628.477 908.63 631.338 908.391 653.279 909.823C700.262 912.925 747.482 905.527 776.101 891.208C799.711 879.275 816.644 854.455 813.782 836.317C811.874 824.623 800.427 801.951 791.364 791.928C787.071 787.393 783.494 781.665 783.494 779.518C783.494 777.131 782.302 775.222 780.871 775.222C778.247 775.222 752.729 754.698 745.336 746.583C743.428 744.435 735.081 738.708 726.972 733.696L711.948 724.388V711.501C711.948 702.432 712.902 698.375 715.525 697.42C717.433 696.466 719.102 694.795 719.102 693.125C719.102 691.693 721.487 688.829 724.349 686.92C726.972 685.01 731.504 680.953 734.366 677.851C742.236 669.021 769.423 652.076 782.302 648.019C788.979 645.871 800.427 643.007 808.297 641.575C815.929 639.905 821.175 637.757 820.222 636.802C819.029 635.609 812.351 632.506 805.435 629.881C790.172 623.915 761.792 623.199 744.382 628.449C737.943 630.359 729.119 632.029 724.587 632.029C717.194 632.029 716.717 631.552 716.717 623.438C716.717 616.517 718.625 612.937 728.165 603.868C734.365 597.663 743.19 585.73 747.721 577.139L756.068 561.626L768.946 560.91L781.586 560.194L797.804 575.707C806.628 584.298 814.975 591.458 816.167 591.458C817.36 591.458 821.652 588.117 825.945 584.06C835.723 574.513 838.347 562.103 831.907 553.751C822.845 541.579 815.929 538.477 795.419 536.567C784.687 535.613 775.147 533.942 774.193 532.51C773.478 531.317 766.8 527.499 759.407 524.157C749.867 519.623 743.428 514.611 738.181 507.213C724.587 488.359 698.354 473.563 679.752 474.517C657.811 475.711 628.953 475.233 618.937 473.324C612.975 472.369 603.912 468.551 598.665 464.971C593.419 461.391 585.072 457.096 580.063 455.664C572.432 453.038 570.047 453.277 563.369 457.095C553.114 463.062 543.575 481.677 547.39 488.837C550.491 494.803 559.076 498.383 570.285 498.383C580.54 498.383 581.256 504.588 571.239 506.736C557.884 509.599 545.244 505.781 539.997 497.428C534.035 487.882 534.273 478.336 540.951 464.971C547.152 452.322 559.315 443.492 570.047 443.492C579.825 443.492 596.042 449.22 607.013 456.38C619.175 464.255 647.317 468.79 662.819 465.687C678.559 462.346 701.454 465.448 716.24 473.085C727.688 479.052 743.428 492.894 750.583 503.633C752.729 506.974 758.691 511.509 763.7 513.895C768.708 516.282 774.67 519.623 776.817 521.532C779.201 523.68 788.979 526.067 800.188 527.26C820.937 529.169 831.43 533.704 838.824 543.966C849.794 558.762 845.501 585.492 830.477 595.754C816.167 605.3 808.774 602.913 786.833 581.434C770.139 564.967 767.038 565.206 758.453 581.912C755.353 588.117 748.913 598.14 744.382 604.107C739.612 610.312 735.796 615.801 735.796 616.278C735.796 616.517 748.913 616.517 765.131 615.801C791.364 614.846 795.896 615.323 810.682 620.574C828.33 626.779 837.393 635.132 834.531 642.291C833.815 644.439 830.238 647.064 826.661 647.78C793.034 655.179 781.348 659.236 765.846 668.782C743.905 682.624 719.102 706.489 719.102 713.888C719.102 714.365 725.064 718.899 732.219 723.672C739.374 728.446 747.721 734.173 750.344 736.56C779.678 760.425 785.879 766.63 802.335 788.348C815.929 806.247 822.129 819.85 823.322 834.885C826.422 869.252 804.481 895.504 761.076 908.868C735.319 916.983 676.89 922.472 651.133 919.13Z" fill="#FDEDEF"/>
<path d="M574.824 911.256C516.633 899.323 452.718 880.947 422.191 867.105C415.752 864.003 400.966 857.798 389.757 853.263C365.431 843.24 317.495 816.033 295.315 799.805C235.693 756.131 206.598 709.355 217.091 673.795C226.154 642.293 261.211 623.678 261.211 650.168C261.211 656.612 260.258 658.282 256.442 658.282C253.341 658.282 251.672 656.612 251.672 653.509C251.672 646.111 248.095 647.782 237.84 659.476C227.346 671.647 222.576 685.489 225.438 697.422C228.539 711.98 242.848 734.891 259.781 753.028C304.616 801.236 384.749 845.865 480.621 876.413C527.842 891.448 593.903 906.483 613.459 906.483C622.045 906.483 623.714 907.199 623.714 911.256C623.714 915.552 622.283 916.029 610.12 915.791C602.489 915.552 586.749 913.643 574.824 911.256Z" fill="#FDEDEF"/>
<path d="M603.676 868.293C586.028 866.145 583.166 863.998 583.166 852.781C583.166 846.814 586.505 842.28 599.86 828.915C609.161 819.608 626.094 801.231 637.541 787.867C648.75 774.264 659.005 763.285 659.959 763.285C661.152 763.285 661.867 761.854 661.867 759.944C661.867 758.274 665.683 753.501 670.214 749.682C674.746 745.625 678.562 741.329 678.562 740.136C678.562 738.943 680.946 735.602 684.047 732.738C688.101 728.919 692.632 727.487 701.218 727.487C711.711 727.487 714.096 728.442 723.159 737.511C728.883 743 733.414 748.728 733.414 750.398C733.414 752.069 735.083 753.739 736.991 754.694C738.899 755.41 740.569 757.08 740.569 758.512C740.569 759.706 742.715 763.047 745.338 765.672C747.962 768.297 750.108 772.116 750.108 774.025C750.108 775.934 751.062 777.605 752.255 777.605C757.024 777.605 762.51 801.709 761.556 817.221C760.602 831.063 759.886 833.211 751.301 842.041C731.744 862.088 710.757 868.293 658.29 869.487C637.303 869.964 612.739 869.487 603.676 868.293ZM700.264 856.122C729.121 848.962 747.723 835.598 752.493 818.415C756.547 803.857 741.761 774.025 718.151 749.444C702.41 732.738 701.456 732.738 688.578 745.864C682.377 752.307 673.076 762.808 667.83 769.252C649.704 791.924 616.793 829.631 605.822 839.894C599.86 845.383 595.09 851.588 595.09 853.258C595.09 854.69 599.145 856.838 604.153 857.554C608.923 858.509 614.17 859.463 615.362 859.94C616.793 860.418 631.818 860.895 648.989 860.895C673.076 861.134 684.524 859.94 700.264 856.122Z" fill="#FDEDEF"/>
<path d="M514.006 845.86C514.006 844.189 516.152 842.041 518.537 841.325C532.608 837.746 552.88 782.616 563.135 721.044C563.85 716.032 565.758 713.168 568.143 713.168C571.482 713.168 571.72 715.793 570.528 731.783C568.143 763.524 552.164 815.551 537.855 838.223C531.654 847.769 529.746 849.201 522.353 849.201C516.868 849.201 514.006 848.008 514.006 845.86Z" fill="#FDEDEF"/>
<path d="M437.687 825.578C396.667 808.633 335.137 775.46 335.137 770.448C335.137 769.016 333.706 768.062 331.798 768.062C330.129 768.062 325.836 765.437 322.259 762.095C318.681 758.754 314.865 756.129 313.911 756.129C312.719 756.129 306.995 750.879 301.033 744.196C295.071 737.753 289.586 732.264 288.87 732.264C286.485 732.264 273.368 716.99 273.13 714.126C273.13 712.455 271.46 710.546 269.552 709.83C259.774 706.25 249.042 665.44 257.628 665.44C259.536 665.44 261.205 666.872 261.205 668.782C261.205 670.452 265.021 679.521 269.552 688.829C280.523 710.546 312.719 743.003 344.438 764.005C369.956 781.188 412.407 803.144 448.181 817.941C468.691 826.532 472.268 827.248 473.937 824.146C477.515 817.941 480.615 820.088 480.615 828.919C480.615 836.794 480.138 837.272 472.983 837.272C468.691 837.033 452.712 832.021 437.687 825.578Z" fill="#FDEDEF"/>
<path d="M563.132 669.736C562.417 666.633 561.702 660.667 561.702 656.371C561.702 645.154 551.447 608.163 542.861 586.922C534.991 568.069 533.321 552.318 538.807 550.17C546.677 547.067 563.371 555.659 585.073 574.274C591.99 580.24 597.952 584.536 598.667 583.82C599.144 583.343 598.19 577.615 596.282 571.171C591.751 556.375 591.751 542.771 596.282 527.975C602.006 508.882 601.291 505.541 591.513 505.541C584.835 505.541 583.166 504.587 583.166 500.768C583.166 496.711 584.835 495.995 592.467 495.995C607.491 495.995 609.399 497.666 609.399 509.837C609.399 515.803 607.491 526.304 605.345 533.464C601.768 544.442 601.768 548.022 604.391 558.761C606.06 565.682 607.968 576.899 608.684 583.82L609.876 596.23H601.291C594.613 596.23 589.843 593.605 577.919 583.581C562.894 570.933 545.007 558.761 545.007 561.386C545.007 562.102 548.346 570.933 552.162 580.717C563.132 608.401 568.856 631.074 570.526 654.223C571.718 671.883 571.48 674.986 568.379 674.986C566.233 674.986 564.086 672.599 563.132 669.736Z" fill="#FDEDEF"/>
<path d="M635.632 669.735C634.439 666.632 629.67 655.177 625.138 643.96C620.369 632.744 616.553 620.095 616.553 615.799C616.553 608.639 617.03 608.162 624.9 608.162C629.67 608.162 636.347 610.31 639.925 612.935C652.326 622.004 672.598 627.254 689.53 625.584L705.032 624.152L704.317 633.459C703.601 641.574 702.17 643.722 691.677 650.404C685.237 654.461 674.506 661.859 667.828 666.394C653.28 676.895 639.209 678.327 635.632 669.735ZM668.543 651.836L689.292 637.994L674.982 636.562C667.112 635.846 655.426 632.982 648.987 630.118C642.548 627.254 635.87 624.868 634.201 624.868C630.385 624.868 629.67 629.88 633.008 633.459C634.201 634.653 637.54 642.29 640.402 650.643C643.502 658.757 646.364 665.439 646.841 665.439C647.556 665.439 657.334 659.234 668.543 651.836Z" fill="#FDEDEF"/>
<path d="M624.901 915.548C564.802 911.252 482.047 890.012 411.454 861.134C323.213 824.859 251.428 772.355 227.341 725.817C211.123 695.031 212.793 671.165 232.587 650.641C241.888 641.095 245.227 638.947 250.712 639.663C258.344 640.379 260.491 645.629 260.967 663.529C261.921 710.066 338.476 774.741 444.365 818.177C470.361 828.916 472.269 829.393 473.938 825.098C476.8 817.699 483.001 822.234 483.001 831.541C483.001 839.178 482.524 839.655 474.653 839.655C456.29 839.655 378.542 803.857 336.33 775.696C306.28 755.888 270.03 720.09 259.298 699.804C254.528 690.258 251.666 681.428 251.428 674.745C251.189 669.018 250.474 661.142 249.52 657.085L248.089 649.925L239.265 661.619C234.257 667.824 229.487 676.893 228.771 681.666C226.625 692.167 230.918 708.396 239.027 722.476C251.428 743.716 293.64 782.856 326.79 804.096C345.631 816.267 396.429 841.803 422.901 852.543C555.263 906.956 696.448 922.946 768.472 891.921C794.705 880.704 814.023 855.645 811.161 836.553C807.345 812.688 784.212 782.856 745.338 751.115C723.397 733.454 722.205 732.977 735.083 747.296C741.761 754.694 751.3 768.536 755.832 777.844C762.986 792.163 764.417 797.414 764.417 810.301C764.417 818.654 762.986 828.916 761.078 833.212C755.832 845.86 739.376 858.032 717.912 865.192C699.548 871.397 697.163 871.635 647.558 871.635C619.416 871.396 591.99 870.442 586.743 869.249C577.681 867.101 577.204 866.385 576.488 857.077C576.011 851.111 576.965 846.099 579.111 844.19C581.019 842.281 587.22 836.553 592.944 831.064C606.776 818.415 636.349 785.481 665.206 750.876C687.624 723.669 688.816 722.715 697.879 722.715H707.18V711.498C707.18 700.281 707.657 699.565 725.782 682.144C748.438 660.426 766.325 649.448 788.982 643.482C814.738 636.561 814.5 636.799 802.575 632.026C771.095 618.9 715.288 634.413 669.26 669.256C658.051 677.609 653.281 679.757 645.411 679.757C638.018 679.757 635.156 678.564 634.202 675.7C626.809 650.88 608.923 618.423 595.329 603.865C585.789 594.08 554.309 567.589 551.924 567.589C550.97 567.589 552.401 573.317 555.024 580.238C571.241 621.764 577.204 667.347 573.626 721.522C570.526 769.73 552.162 828.677 533.56 849.918C529.744 854.213 518.297 855.168 504.703 852.543C498.264 851.111 497.31 850.156 497.31 842.997C497.31 835.837 498.025 834.882 503.272 834.882C506.611 834.882 509.95 836.553 510.665 838.462C511.619 840.371 514.72 842.042 517.82 842.042C528.313 842.042 543.577 811.733 556.217 765.195C562.417 742.046 562.894 737.989 562.894 691.69C562.894 637.993 561.702 631.31 545.962 590.5C536.422 565.68 534.991 556.134 540.476 552.554C545.962 548.974 562.894 557.805 583.643 574.988C592.944 582.863 601.052 588.591 601.768 588.114C602.483 587.398 601.052 580.954 598.906 573.556C594.136 558.759 594.613 537.519 599.86 519.381C601.768 513.176 602.483 507.449 601.529 506.494C600.814 505.539 587.936 504.823 573.388 504.585C548.585 504.346 546.677 504.107 542.384 498.618C536.66 491.459 536.66 478.571 542.623 465.684C552.878 442.773 578.634 439.432 605.822 457.808C620.132 467.355 631.817 468.787 678.084 466.877C704.318 465.684 729.836 478.333 745.338 499.812C749.869 506.255 757.263 512.699 763.94 516.04C770.141 519.143 778.25 523.2 782.065 525.348C785.881 527.496 794.228 529.166 800.429 528.927C816.408 528.927 827.378 533.223 835.964 542.769C841.926 549.69 843.119 553.032 843.119 562.816C843.119 576.897 840.495 584.534 833.102 591.455C819.27 604.581 810.446 602.433 789.22 581.67C770.141 562.816 766.325 563.055 754.878 584.295C750.346 592.887 741.284 605.058 734.845 611.263C728.644 617.468 723.874 623.196 724.351 623.673C725.067 624.389 731.267 623.196 738.422 621.048C746.292 618.661 760.363 617.23 774.434 616.991C823.324 616.991 854.327 640.856 815.215 648.732C781.35 655.414 758.455 667.824 732.937 692.883C715.527 710.066 715.05 715.078 729.598 723.669C746.769 733.693 783.735 766.15 795.898 781.901C812.83 803.141 819.985 819.131 821.178 836.792C822.37 855.645 817.839 868.771 804.722 882.136C776.342 911.968 719.343 922.469 624.901 915.548ZM705.033 856.839C725.543 850.872 732.698 846.815 743.669 835.598C754.639 824.143 757.024 813.404 751.777 798.13C744.146 775.935 711.473 734.648 701.456 734.648C695.971 734.648 688.578 742.284 652.328 785.958C642.549 797.652 624.663 817.699 612.5 830.109C597.714 845.383 591.274 853.975 592.467 856.123C597.714 864.237 677.369 864.953 705.033 856.839ZM659.721 659.949C665.444 655.414 675.222 648.971 681.423 645.391C699.787 634.651 700.264 632.265 683.808 633.697C668.068 635.129 643.265 628.446 632.056 619.616C628.717 616.991 625.378 615.32 624.901 615.798C624.186 616.275 627.525 625.821 632.294 637.038C636.826 648.016 641.596 659.471 642.788 662.574C645.65 669.495 647.319 669.256 659.721 659.949ZM696.925 618.9C703.364 616.991 713.142 612.218 718.627 608.161C730.313 599.808 744.384 581.193 746.531 571.885C748.915 562.1 758.455 555.657 770.618 555.657C780.396 555.657 782.065 556.85 796.136 571.169C813.069 588.591 818.793 590.262 826.186 579.999C834.771 567.828 834.771 561.862 826.663 552.554C817.6 542.292 810.684 539.667 789.936 538.235C779.681 537.519 772.049 535.61 769.425 533.223C767.279 531.075 761.317 527.973 756.309 526.302C750.108 524.154 743.43 518.665 734.845 507.926C726.02 496.709 718.627 490.504 708.372 485.254C695.732 478.81 692.632 478.094 676.415 478.81C629.91 480.958 611.546 478.571 598.429 468.548C584.835 458.047 574.103 454.706 565.995 458.047C558.84 460.911 549.777 475.23 549.777 483.583C549.777 492.652 556.217 494.8 584.12 494.8H610.592L611.307 506.494C611.784 512.938 610.353 525.586 608.207 534.417C604.868 547.304 604.868 552.077 607.015 560.668C611.307 576.897 620.132 592.41 629.671 600.524C653.281 621.525 671.645 626.298 696.925 618.9Z" fill="#F9E2E3"/>
<path d="M490.157 845.625C490.157 843 487.534 842.045 481.095 842.045C471.794 842.045 466.309 838.704 466.309 832.977C466.309 830.829 467.978 830.351 471.078 831.306C474.656 832.499 475.371 832.022 474.417 828.919C473.463 826.533 474.894 823.192 477.995 820.328C480.618 817.703 483.003 814.123 483.003 812.214C483.003 810.304 484.672 808.634 486.58 808.634C489.204 808.634 490.157 811.736 490.396 821.282C490.396 832.022 490.873 832.977 493.019 828.442C495.881 822.237 508.283 820.328 506.136 826.294C505.421 828.203 506.375 831.545 508.044 834.17C512.575 839.898 512.337 841.568 507.567 842.761C503.99 843.716 503.99 843.955 508.044 844.193C510.668 844.432 514.483 845.625 516.391 846.818C519.015 848.489 515.676 849.205 505.182 849.205C493.496 849.205 490.157 848.489 490.157 845.625Z" fill="#E2E1E5"/>
<path d="M528.311 729.875C528.311 719.613 529.026 717.942 533.08 717.942C536.658 717.942 537.85 719.613 537.85 724.625C537.85 734.648 535.227 741.808 531.649 741.808C529.264 741.808 528.311 738.467 528.311 729.875Z" fill="#E2E1E5"/>
<path d="M528.311 691.694C528.311 680.955 533.796 678.091 536.419 687.637C539.043 697.422 538.089 701.24 533.08 701.24C529.026 701.24 528.311 699.57 528.311 691.694Z" fill="#E2E1E5"/>
<path d="M289.824 666.393C289.824 662.574 300.079 648.971 305.326 645.391C310.811 641.811 311.288 641.811 311.288 645.63C311.288 649.448 313.673 649.926 338.714 649.21C364.71 648.494 366.141 648.732 366.141 653.028C366.141 657.324 364.471 657.801 346.585 657.562C323.69 657.324 311.527 659.233 301.749 664.245C294.356 668.063 289.824 668.779 289.824 666.393Z" fill="#E2E1E5"/>
<path d="M319.159 633.22C327.745 625.583 330.368 625.821 330.368 633.22C330.368 638.47 329.414 639.186 321.544 639.186L312.481 638.947L319.159 633.22Z" fill="#E2E1E5"/>
<path d="M451.991 636.804C451.991 635.611 453.661 634.418 455.569 634.418C458.192 634.418 459.146 631.792 459.146 624.871C459.146 616.996 459.861 615.325 463.916 615.325C467.97 615.325 468.685 616.996 468.685 627.258V639.191H460.338C455.807 639.191 451.991 638.236 451.991 636.804Z" fill="#E2E1E5"/>
<path d="M455.81 593.366C455.094 590.264 454.379 582.627 454.379 575.945C454.379 560.671 456.525 553.272 460.58 553.272C463.203 553.272 463.918 558.284 463.918 575.945C463.918 593.605 463.203 598.617 460.58 598.617C458.91 598.617 456.764 596.23 455.81 593.366Z" fill="#E2E1E5"/>
<path d="M487.771 525.828C487.771 516.282 493.495 514.134 495.88 522.964C498.265 531.794 497.55 534.181 492.541 534.181C488.725 534.181 487.771 532.51 487.771 525.828Z" fill="#E2E1E5"/>
<path d="M463.92 496.473C463.92 492.893 464.874 488.836 465.828 487.643C467.02 486.211 469.405 480.483 471.075 474.755C474.413 464.493 479.183 460.197 482.999 464.016C483.953 465.209 485.622 471.891 486.576 478.812C488.007 490.268 487.769 491.222 483.238 491.222C480.376 491.222 478.229 490.268 478.229 488.836C478.229 487.643 477.275 486.449 475.844 486.449C474.652 486.449 473.459 490.268 473.459 494.802C473.459 501.484 472.506 503.155 468.69 503.155C465.112 503.155 463.92 501.484 463.92 496.473Z" fill="#E2E1E5"/>
<path d="M397.144 458.29C397.144 454.71 369.957 450.892 356.124 452.324C346.823 453.278 342.292 452.801 342.292 451.13C342.292 438.004 395.236 441.584 410.261 455.665C414.793 460.199 414.793 460.199 405.969 460.199C401.199 460.199 397.144 459.245 397.144 458.29Z" fill="#E2E1E5"/>
<path d="M804.955 416.762C791.123 411.75 777.767 393.612 781.345 384.543C784.207 376.907 859.569 300.537 866.008 298.867C872.447 297.196 880.318 301.014 888.903 310.083C896.535 317.959 899.397 327.505 896.535 335.142C893.912 342.302 822.603 414.614 815.926 417.239C813.064 418.194 808.294 417.955 804.955 416.762ZM845.498 363.542L880.079 328.937L874.832 323.925L869.824 318.675L835.005 353.996C802.093 387.646 800.424 389.794 804.24 393.851C806.386 396.238 808.771 398.147 809.487 398.147C810.44 398.147 826.419 382.634 845.498 363.542Z" fill="#E2E1E5"/>
<path d="M217.8 405.782C200.629 386.69 201.344 379.53 221.139 373.087C243.557 365.688 258.82 354.233 258.82 344.448C258.82 334.186 252.142 333.231 226.386 339.675C213.269 343.016 198.005 345.641 192.043 345.641C171.772 345.641 152.454 332.754 141.961 312.468C137.429 303.638 138.383 281.443 144.107 268.556C152.931 248.032 187.75 216.529 205.399 212.95C211.599 211.756 214.461 212.95 221.616 219.393C230.678 227.269 237.356 237.77 237.356 243.975C237.356 246.361 230.44 251.134 219.708 256.146C201.583 264.738 192.043 274.045 192.043 283.353C192.043 290.99 201.344 291.706 222.093 285.739C257.866 275.477 281.954 279.534 298.648 298.627C325.835 329.652 311.765 372.132 264.067 403.396C253.335 410.317 245.703 413.419 237.833 414.374C227.101 415.329 225.909 414.851 217.8 405.782ZM255.481 386.451C291.016 362.586 302.702 337.527 288.393 316.526C275.276 297.672 261.92 294.331 232.109 302.684C222.57 305.309 208.022 307.457 199.913 307.457C179.165 307.457 175.349 303.4 175.349 281.921C175.349 266.17 175.587 265.931 185.843 255.907C191.805 250.418 200.39 244.452 204.922 242.781C214.223 239.44 215.177 237.77 210.168 233.713C203.491 228.223 167.24 260.68 159.132 279.534C153.17 293.615 156.985 306.263 171.533 318.912C183.219 329.174 191.089 330.129 213.269 324.401C237.118 318.196 265.021 317.719 271.222 323.447C277.422 328.936 277.184 353.517 270.745 364.256C265.498 372.848 247.611 385.019 236.879 387.406C231.394 388.838 230.44 389.554 232.825 392.418C236.879 397.429 240.218 396.713 255.481 386.451Z" fill="#E2E1E5"/>
<path d="M746.291 368.792C737.705 363.78 729.596 356.382 726.973 351.609C721.965 342.301 726.735 333.71 774.432 266.648C784.21 252.806 798.281 232.281 805.674 221.065C820.222 199.109 822.607 196.722 830.477 194.813C840.017 192.426 864.581 211.041 864.581 220.826C864.581 225.838 850.272 248.271 809.013 307.458C800.428 319.868 789.934 335.38 785.403 341.824C766.085 370.224 758.215 375.713 746.291 368.792ZM801.382 285.979C844.548 223.69 845.025 222.735 840.255 218.678C837.632 216.292 834.532 214.86 833.339 215.576C831.67 216.769 818.314 235.623 782.303 288.365C775.625 298.15 764.416 314.617 757.5 324.641C746.768 340.392 745.337 343.733 747.722 346.836C749.391 348.983 752.491 350.415 754.161 349.938C756.069 349.461 777.294 320.822 801.382 285.979Z" fill="#E2E1E5"/>
<path d="M686.432 330.367C680.947 328.457 673.554 324.878 669.977 322.014C665.684 318.673 660.199 317.002 652.567 317.002C628.48 317.002 611.07 306.501 603.438 287.886C594.137 264.737 611.308 231.802 634.919 227.268C643.981 225.597 672.123 227.268 679.278 229.893C681.663 230.848 683.332 230.609 683.332 228.938C683.332 224.643 668.069 219.154 655.906 219.154C649.705 219.154 642.789 217.96 640.166 216.767C630.149 211.278 638.258 185.981 651.852 180.73C667.592 174.525 712.905 188.845 726.26 203.88C740.569 220.108 741.523 239.201 729.837 272.851C710.997 327.98 711.235 327.503 703.127 331.083C700.026 332.514 697.164 333.708 696.926 333.469C696.687 333.469 691.918 332.037 686.432 330.367ZM705.273 288.125C710.281 274.521 716.005 257.1 718.151 249.701C721.967 236.575 721.967 235.621 717.436 227.029C714.813 222.017 707.896 214.619 701.696 210.323C689.294 201.971 667.115 196.004 660.199 198.868C657.098 200.3 660.199 201.255 670.692 202.686C687.148 204.834 698.595 209.846 702.411 216.528C706.465 224.165 705.512 244.69 700.98 246.36C695.018 248.747 668.546 248.031 658.529 245.167C646.843 241.826 640.166 243.735 629.911 252.565C618.463 262.827 615.84 271.419 621.086 281.681C627.526 293.852 641.835 300.057 659.722 298.626C674.031 297.194 674.269 297.194 682.378 306.024C686.909 311.036 691.918 314.615 693.587 314.138C695.018 313.422 700.503 301.967 705.273 288.125Z" fill="#E2E1E5"/>
<path d="M640.647 289.322C634.447 281.446 633.97 263.309 639.455 255.433C642.794 250.66 645.179 250.183 663.304 250.183C690.73 250.183 692.876 251.615 692.876 268.798C692.876 280.969 691.922 283.594 686.199 289.083C680.236 294.811 677.613 295.527 662.588 295.527C647.086 295.527 645.179 295.05 640.647 289.322ZM673.32 274.525C678.09 268.32 675.228 265.695 664.019 265.695C655.911 265.695 653.526 266.65 652.81 269.991C650.902 279.776 666.404 283.356 673.32 274.525Z" fill="#E2E1E5"/>
<path d="M340.856 326.787C321.539 315.093 312.953 286.693 322.969 267.362C328.693 256.146 337.517 248.031 354.927 238.485C362.32 234.189 368.521 230.371 368.521 229.655C368.521 229.178 364.943 228.7 360.651 228.7C355.165 228.7 349.68 231.326 341.333 238.247C325.593 251.373 314.861 250.179 308.899 234.905C304.606 223.211 306.037 216.529 314.861 208.415C336.802 187.413 376.152 177.39 396.186 187.652C412.641 196.005 420.034 208.415 437.683 256.862C449.368 289.319 449.845 291.228 446.268 296.956C441.498 304.115 427.666 310.082 415.026 310.32C408.11 310.559 402.863 312.945 395.47 318.673C379.253 332.038 355.165 335.618 340.856 326.787ZM375.675 309.366L384.023 304.115L371.621 302.683C354.45 300.774 350.634 296.478 350.634 278.818C350.634 262.351 348.249 261.635 340.379 275.954L334.655 285.977L339.664 296.24C344.672 306.74 354.45 314.377 362.559 314.616C365.182 314.616 371.144 312.229 375.675 309.366ZM428.143 285.977C428.143 285.023 422.896 269.988 416.457 252.566C404.533 220.586 397.855 210.324 384.738 203.403C381.161 201.494 376.629 200.062 374.722 200.062C369.475 200.062 346.341 209.131 340.856 213.188C336.802 216.29 337.279 216.29 345.149 213.188C356.835 208.415 375.437 208.653 382.353 213.427C389.031 217.961 389.746 236.576 383.546 243.497C379.968 247.554 380.207 247.793 388.315 247.793C394.516 247.793 397.855 249.225 400.478 253.043C404.771 259.01 405.487 280.25 401.909 285.977C400.001 288.841 401.432 289.796 408.587 290.751C417.172 292.182 428.143 289.319 428.143 285.977ZM385.215 276.431C388.554 270.226 386.407 266.885 379.491 266.885C369.952 266.885 364.943 276.67 371.383 283.114C374.722 286.455 381.638 283.114 385.215 276.431Z" fill="#E2E1E5"/>
<path d="M897.487 310.801C882.7 302.925 878.885 280.73 890.571 269.036C896.294 263.309 899.633 262.115 908.696 262.115C918.235 262.115 921.097 263.309 928.013 270.229C934.929 277.15 936.122 279.776 936.122 290.038C936.122 296.243 934.691 303.164 933.022 305.312C925.867 314.858 909.411 317.483 897.487 310.801ZM916.804 294.572C922.29 288.129 911.319 275.957 905.595 281.685C901.78 285.503 902.018 288.367 906.788 293.618C911.319 298.868 913.227 298.868 916.804 294.572Z" fill="#E2E1E5"/>
<path d="M500.169 293.854C495.877 292.183 490.868 281.682 480.613 251.85C475.605 237.054 467.735 214.62 462.965 201.733C449.61 165.219 451.518 159.491 477.036 159.491C502.316 159.491 504.462 161.639 513.048 191.71C519.249 214.62 522.11 222.019 524.734 222.019C526.88 222.019 533.319 203.642 539.997 179.3C544.29 163.548 550.252 159.491 568.854 159.491C589.364 159.491 593.895 162.594 592.226 175.242C591.511 180.493 584.833 201.494 577.44 221.78C548.583 300.297 551.921 295.524 523.78 295.286C512.571 295.286 501.839 294.57 500.169 293.854ZM538.089 274.045C540.236 270.466 573.624 179.538 573.624 177.39C573.624 176.674 571.001 176.197 567.662 176.197C560.03 176.197 556.453 183.357 548.344 213.666C535.943 259.965 538.566 254.953 526.88 254.953C513.286 254.953 511.14 251.373 500.408 213.904C495.877 197.676 490.391 182.641 488.245 180.493C484.906 176.436 477.99 174.765 475.367 177.39C474.651 178.106 479.421 193.38 485.86 211.518C506.847 270.704 509.47 276.671 514.479 278.58C521.395 280.966 535.704 278.341 538.089 274.045Z" fill="#E2E1E5"/>
<path d="M628.481 913.403C567.666 909.107 485.149 888.344 415.749 859.706C389.277 848.966 338.479 823.43 319.638 811.259C283.149 788.11 239.983 746.584 229.251 724.389C215.896 697.182 217.088 673.317 232.351 653.747C240.221 643.962 250.238 639.189 254.292 643.246C255.485 644.44 257.154 653.031 257.87 662.1C260.016 686.204 269.317 702.194 296.982 730.117C324.169 757.323 354.458 778.086 400.724 800.997C428.151 814.6 476.564 834.886 481.811 834.886C482.526 834.886 483.003 832.738 483.003 830.351C483.003 827.01 484.195 826.056 487.773 827.01C490.396 827.726 492.543 829.874 492.543 831.545C492.543 833.454 494.212 834.886 496.358 834.886C498.743 834.886 499.697 836.318 498.982 838.227C498.028 840.614 500.89 842.523 509.475 844.432C524.023 848.012 526.646 846.103 537.378 824.624C561.227 776.416 569.813 728.207 565.997 666.634C564.328 639.667 558.365 614.369 546.441 583.344C536.186 556.615 539.048 549.932 557.173 559.24C564.328 563.058 589.13 583.344 601.055 595.277C615.126 609.357 640.406 655.179 640.406 666.634C640.406 674.271 647.799 672.839 661.87 662.339C711.714 624.631 772.528 609.596 810.687 625.109C824.28 630.836 831.674 637.28 828.096 640.621C827.381 641.576 815.933 645.156 802.816 648.735C773.482 656.611 757.027 666.157 732.939 689.307C710.283 711.263 709.567 714.604 726.977 725.343C750.11 739.424 780.637 766.631 796.616 787.155C811.879 806.963 817.364 819.612 818.795 837.272C819.749 850.876 819.034 854.694 813.548 865.195C799.239 893.356 767.043 908.391 709.329 913.642C679.041 916.267 668.309 916.267 628.481 913.403ZM738.186 894.788C774.436 885.242 800.431 866.627 804.009 847.773C806.871 832.261 794.469 807.202 770.62 781.189L759.65 769.256L764.42 779.995C771.336 795.985 771.097 827.965 763.704 840.852C756.311 853.978 740.809 864.956 720.776 871.161C704.798 876.173 699.312 876.65 641.598 876.65C588.653 876.65 578.16 875.934 570.767 872.593C562.42 868.775 561.704 867.82 561.704 858.99C561.704 850.876 563.135 848.25 570.767 841.568C591.277 823.908 633.728 779.041 657.815 749.448C671.886 732.026 685.718 716.513 688.342 714.843C690.965 713.411 695.735 707.444 698.835 701.955C710.998 681.67 751.78 649.451 777.537 640.144C791.607 635.132 791.607 634.893 783.976 633.462C773.959 631.075 741.048 637.996 721.015 646.349C702.651 654.224 682.38 666.873 666.401 680.238C656.384 688.591 654.238 689.545 643.983 688.829L632.535 688.113L623.711 665.918C612.025 637.041 602.009 621.29 583.407 602.198C568.382 586.924 561.704 582.628 565.997 590.981C567.428 593.129 570.767 604.107 573.629 615.324C577.683 631.314 579.114 644.917 580.068 678.567C581.499 726.775 579.114 751.357 569.813 783.814C563.374 806.009 545.249 847.057 538.571 854.456C531.416 862.57 487.773 858.035 487.773 849.444C487.773 848.012 483.48 846.819 478.233 846.819C461.3 846.819 409.071 825.34 364.713 800.042C328.462 779.757 306.521 763.528 282.672 739.424C257.393 714.127 246.899 696.705 244.991 676.897L243.799 664.964L239.029 672.601C217.804 706.012 273.61 769.494 368.528 820.089C431.489 853.501 515.914 881.423 592.708 894.311C634.443 901.232 634.682 901.232 678.564 900.516C710.044 900.038 721.969 898.845 738.186 894.788ZM710.76 857.797C740.809 848.25 757.265 831.306 757.265 810.304C757.265 796.462 741.763 769.256 721.969 748.493C712.191 738.231 702.174 729.878 699.789 729.878C697.166 729.878 685.957 741.572 671.171 759.232C637.782 799.326 612.741 827.01 598.193 839.659C585.076 851.353 581.737 855.887 585.076 859.229C588.892 863.047 624.188 865.672 658.292 864.718C685.957 864.002 695.019 862.808 710.76 857.797Z" fill="#F3BCC5"/>
<path d="M660.672 628.687C635.63 622.482 615.836 606.253 606.058 584.297C597.234 564.727 595.803 548.26 601.049 527.497C607.25 501.245 607.966 501.961 576.485 501.961C550.967 501.961 549.059 501.722 544.766 496.233C538.804 489.074 539.042 481.675 545.243 467.118C555.26 443.968 579.824 441.582 605.581 461.39C610.35 464.97 618.936 468.311 627.045 469.743C634.438 470.936 641.354 472.368 642.308 473.084C643.5 473.8 652.324 472.845 661.864 471.175C695.968 465.447 721.248 474.754 741.996 500.768C750.582 511.507 757.259 516.996 763.46 519.144C768.468 520.815 774.431 523.917 776.577 526.065C779.2 528.452 787.071 530.361 798.28 531.077C818.074 532.509 825.467 535.611 834.768 546.589C840.492 553.272 841.207 555.897 840.254 566.398C839.061 580.717 831.43 593.127 822.605 595.275C812.35 597.9 804.003 593.843 788.978 578.092C780.631 569.739 772.523 562.818 770.615 562.818C765.13 562.818 755.352 572.125 753.682 579.046C751.536 588.354 737.465 606.969 725.779 615.322C708.369 627.971 680.466 633.698 660.672 628.687ZM703.838 609.117C720.771 600.287 730.31 590.025 739.611 570.694C748.674 551.84 753.921 548.499 773.238 548.499C782.778 548.499 784.686 549.692 798.518 564.011C806.865 572.603 814.735 579.524 816.166 579.524C817.359 579.524 820.459 575.705 823.082 571.171L827.375 563.057L821.651 556.613C813.543 547.783 802.572 543.726 787.786 543.726C779.439 543.726 772.523 542.055 767.514 539.191C763.46 536.566 755.59 533.225 750.343 531.793C742.473 529.884 739.373 527.02 734.365 518.428C726.494 504.825 707.654 489.79 694.537 486.21C688.098 484.539 679.035 484.301 669.019 485.494C660.433 486.449 649.224 487.403 643.977 487.403C627.999 487.165 603.911 481.198 596.28 475.709C592.464 472.607 585.548 468.549 581.016 466.163C571.238 461.151 563.845 464.015 558.36 475.47C554.783 482.391 555.021 483.107 559.791 487.165C562.653 489.551 566.23 490.983 567.899 490.267C569.569 489.551 580.062 488.358 591.033 487.403C609.635 485.971 611.543 486.21 616.313 490.983C622.752 497.427 622.752 509.359 616.551 532.747C612.258 547.783 612.02 552.317 614.166 560.909C625.614 603.628 669.496 627.255 703.838 609.117Z" fill="#F3BCC5"/>
<path d="M486.576 844.434C485.861 843.24 482.761 842.047 479.899 841.808C475.129 841.808 475.129 841.57 479.183 839.899C483.238 838.467 483.715 835.842 483.238 817.943C482.522 790.736 475.367 761.859 463.443 738.471C449.611 711.503 419.561 681.433 394.52 669.739C369.717 658.045 355.169 654.942 331.797 656.851C321.304 657.567 308.902 658.999 304.61 659.715C293.162 661.863 294.831 657.09 310.81 641.577C334.898 617.951 370.671 605.302 399.051 610.314C406.444 611.746 422.661 617.951 434.824 624.156C449.849 631.793 457.719 634.418 459.389 632.747C461.058 631.077 461.058 625.588 459.389 615.087C451.519 567.833 460.581 487.884 475.606 469.508C478.229 466.405 480.853 464.496 481.807 465.212C482.522 466.166 485.861 479.292 488.961 494.566C492.062 509.84 501.601 544.922 510.187 572.606C527.596 628.213 531.651 645.635 535.467 682.149C541.19 732.743 530.935 781.906 505.417 827.012C500.409 835.842 496.593 843.956 496.831 845.15C497.547 847.775 488.246 847.297 486.576 844.434ZM508.756 769.973C516.149 747.063 519.726 717.708 517.818 694.32C515.672 666.636 509.71 641.339 491.585 581.914C489.677 575.947 486.099 564.731 483.715 556.855L479.422 542.536L477.991 553.275C477.037 559.242 477.275 571.89 478.706 581.675C479.899 591.46 481.091 611.746 481.33 626.542C481.807 651.124 481.33 654.226 477.275 657.329C467.259 664.727 449.134 660.67 431.247 647.066C422.423 640.384 394.281 629.645 385.457 629.645C382.118 629.645 374.964 630.838 369.717 632.509C362.562 634.418 361.37 635.611 364.947 636.327C391.419 641.816 420.515 655.897 439.833 672.841C456.527 687.16 482.999 721.288 482.999 728.209C482.999 730.357 483.953 732.505 485.145 733.459C487.53 734.653 494.924 755.893 499.693 774.747C501.124 780.236 502.555 784.77 503.271 784.77C503.748 784.77 506.132 778.088 508.756 769.973Z" fill="#0D89C3"/>
<path d="M348.251 593.129C332.51 587.878 324.64 582.866 313.908 571.172C298.883 554.705 293.637 541.579 293.637 519.623C293.637 497.905 300.791 480.722 316.055 465.448C331.556 449.936 344.673 444.924 368.522 444.686C385.932 444.686 390.702 445.64 402.388 451.368C429.337 464.494 446.269 493.61 444.362 522.726C442.454 551.841 425.521 576.661 399.764 588.594C384.024 595.992 362.56 597.663 348.251 593.129ZM402.388 559.24C413.835 549.932 418.366 544.443 420.513 537.283C426.952 516.043 421.467 496.474 405.011 481.677C390.225 468.551 379.731 464.255 364.706 465.448C347.297 466.88 325.117 484.064 317.009 502.44C310.092 517.714 310.092 521.532 315.339 533.465C324.879 554.228 339.188 566.877 361.368 573.559C374.007 577.616 385.216 573.559 402.388 559.24Z" fill="#0D89C3"/>
<path d="M623.708 907.435C414.792 883.092 204.922 760.424 227.578 675.702C229.009 670.213 233.54 662.337 237.356 658.28C246.657 648.257 250.712 651.359 252.143 668.781C253.812 689.305 264.067 706.488 289.824 732.263C311.526 753.98 339.906 775.459 368.525 791.211C400.244 808.871 406.206 811.735 429.101 821.52C467.498 837.748 477.753 840.851 484.431 837.271C488.962 834.646 490.631 834.646 493.732 837.271C495.64 838.941 496.594 841.089 495.878 842.283C493.97 845.385 509.949 851.59 519.488 851.59C529.982 851.59 532.844 848.01 545.961 820.565C567.425 774.505 575.056 735.127 572.91 678.566C571.479 641.336 567.902 622.721 555.739 588.832C552.4 579.524 549.777 571.171 549.777 569.739C549.777 561.386 573.625 576.899 594.136 598.616C609.637 614.845 620.131 632.028 630.863 658.757C636.587 673.315 641.118 681.191 643.741 681.668C646.126 682.146 653.042 678.327 659.004 673.077C674.029 660.428 694.062 647.779 711.234 640.142C728.405 632.505 761.555 624.868 777.533 625.107C790.889 625.107 814.738 631.789 816.169 635.847C816.646 637.279 809.968 640.142 800.905 642.29C792.081 644.677 778.249 649.689 770.14 653.746C752.731 662.576 718.627 690.976 710.041 704.102C706.464 709.352 700.025 717.228 695.732 721.285C691.2 725.342 676.653 742.048 663.536 758.515C640.879 786.437 598.19 831.304 577.918 848.726C572.91 853.022 568.856 857.557 568.856 858.988C568.856 860.182 572.91 863.284 577.918 865.432C585.311 868.773 595.566 869.251 641.595 869.489C691.916 869.489 697.878 869.012 713.618 864C768.709 846.817 777.533 803.143 735.798 753.264C717.673 731.547 719.819 729.16 742.714 744.434C771.333 763.527 798.52 794.552 807.821 818.656C822.846 858.511 802.098 886.672 746.291 901.708C730.551 906.003 719.581 906.958 679.753 907.674C653.519 908.151 628.239 907.913 623.708 907.435ZM734.605 888.104C747.722 884.763 762.032 880.229 766.801 877.842C779.68 871.16 794.943 854.931 796.612 846.101C798.282 836.555 793.035 820.804 783.734 808.394L777.056 799.086L775.625 817.701C775.149 828.202 772.764 839.657 770.856 843.476C761.793 860.898 739.375 874.501 708.372 881.661C672.598 890.013 570.764 885.956 556.931 875.694C552.161 872.114 550.969 869.251 550.969 860.659V850.158L542.145 859.704C533.321 868.773 533.082 869.012 519.488 867.58L505.656 866.148L516.388 869.728C539.045 877.365 616.076 892.4 647.557 895.502C670.452 897.65 710.757 894.309 734.605 888.104ZM485.862 858.75C481.569 856.125 475.845 853.977 472.745 854.215C469.167 854.215 470.837 855.647 478.23 858.75C492.539 864.477 495.401 864.477 485.862 858.75ZM572.672 829.873C585.55 820.565 615.838 789.063 637.779 762.333C645.172 753.503 658.766 737.513 667.829 727.013C677.13 716.512 689.531 701.715 695.493 694.317C707.418 679.759 731.744 657.325 745.337 648.734L753.684 643.484L745.337 644.915C732.459 647.302 690.485 668.542 678.561 679.043C659.481 695.749 653.519 698.851 642.072 698.851C635.871 698.851 630.386 697.419 629.193 695.987C628.239 694.317 622.993 682.146 617.746 669.02C608.445 645.87 593.42 621.05 583.88 612.458C579.349 608.163 579.349 608.401 583.642 631.551C590.558 669.258 591.512 700.761 586.742 733.456C581.257 770.925 573.387 801.234 563.132 823.906C558.601 833.93 555.977 841.328 557.647 840.373C559.316 839.657 565.994 834.884 572.672 829.873ZM370.91 812.212C370.91 811.735 367.81 809.587 363.755 807.439C354.693 802.905 354.216 804.814 363.278 809.587C370.671 813.644 370.91 813.883 370.91 812.212ZM329.174 787.392C327.744 786.437 320.35 780.71 312.719 775.221C304.849 769.493 289.824 756.844 279.33 746.821L260.013 728.922L277.899 747.537C287.677 757.56 303.179 771.402 312.242 777.846C327.267 788.347 335.137 792.881 329.174 787.392Z" fill="#D23448"/>
<path d="M663.541 622.481C641.838 618.663 620.851 601.718 611.311 580.001C603.918 563.533 603.203 547.544 609.165 526.065C617.512 495.994 613.935 492.414 581.262 496.472C562.183 498.858 558.844 498.619 553.597 495.04C546.92 490.744 545.489 482.152 549.543 471.413C557.175 451.127 578.877 450.173 603.441 468.549C607.496 471.413 617.035 474.993 624.905 476.425C632.775 477.618 640.407 479.05 641.6 479.527C643.03 479.766 650.901 479.288 659.486 478.095C689.774 474.277 706.23 477.618 723.401 490.982C729.84 496.233 737.949 505.302 741.526 511.268C746.535 519.86 749.635 522.724 757.505 524.633C762.752 526.065 770.622 529.406 774.676 532.031C779.685 534.895 786.601 536.565 794.948 536.565C826.905 536.565 843.123 557.567 829.052 580.239C820.466 594.32 813.073 592.888 792.801 572.364C783.5 563.056 774.676 555.658 773.007 555.658C771.337 555.658 766.568 556.851 762.275 558.283C756.313 560.431 753.451 564.011 747.965 575.943C731.748 611.503 700.268 628.925 663.541 622.481ZM700.268 603.15C715.531 595.513 723.878 586.444 733.656 566.875C741.049 552.317 744.865 547.305 750.35 545.396C759.651 541.816 759.175 539.907 747.727 537.997C739.618 536.804 736.995 534.656 728.886 522.485C718.393 507.211 701.699 494.562 688.82 492.176C684.289 491.221 675.465 491.46 669.503 492.653C663.302 493.608 651.616 494.562 643.507 494.562L628.483 494.801V506.256C628.483 512.7 626.098 524.633 623.236 532.986C617.989 547.782 617.989 548.26 622.043 561.147C627.529 578.33 637.784 592.172 651.139 600.048C669.98 611.026 682.858 611.98 700.268 603.15ZM817.604 566.636C819.035 563.056 814.504 558.044 805.441 553.271C796.856 548.975 796.617 551.839 804.964 561.386C813.311 570.693 815.696 571.648 817.604 566.636ZM586.27 479.527C590.086 475.709 574.584 469.026 568.86 472.129C564.091 474.754 562.66 479.527 565.999 482.63C568.145 485.016 583.17 482.63 586.27 479.527Z" fill="#D23448"/>
<path d="M488.484 840.374C486.815 839.897 485.384 838.226 485.384 837.033C485.384 833.692 491.584 834.646 494.923 838.465C497.308 841.329 497.308 842.045 494.685 841.806C492.777 841.806 489.915 841.09 488.484 840.374Z" fill="#0082BF"/>
<path d="M496.597 814.361C495.643 813.407 494.927 807.44 494.927 801.235C494.927 789.064 484.911 750.879 479.187 742.526C477.279 739.662 475.848 736.083 475.848 734.412C475.848 728.207 448.183 693.364 432.682 679.999C408.833 659.236 372.105 643.485 346.587 643.007C339.194 642.769 332.278 641.814 331.562 641.098C330.608 640.382 337.286 636.086 346.349 631.791C375.921 617.71 411.695 620.574 437.451 639.428C453.43 650.883 461.539 654.224 467.501 651.599C474.894 648.258 475.848 639.905 472.748 608.164C469.647 578.332 469.647 548.978 472.271 521.055C473.94 502.679 477.041 497.906 479.664 509.838C480.856 515.805 490.396 548.262 498.505 574.752C518.299 638.234 523.784 662.816 525.215 695.511C526.885 727.968 523.307 754.936 513.529 784.052C505.898 806.247 499.697 817.464 496.597 814.361Z" fill="#0082BF"/>
<path d="M354.217 580.959C323.691 570.697 304.135 547.07 304.135 519.863C304.135 500.532 312.72 484.542 330.607 470.7C345.632 459.245 346.109 459.006 364.949 458.29C387.606 457.336 396.191 460.2 412.17 474.519C429.341 490.031 436.019 514.851 429.103 538.956C425.287 552.32 423.618 554.945 409.785 566.401C389.275 583.345 373.535 587.402 354.217 580.959Z" fill="#0082BF"/>
<path d="M487.771 839.658C482.047 836.078 486.101 835.124 492.54 838.465C496.118 840.374 497.072 841.806 494.925 841.806C493.017 842.045 489.678 841.09 487.771 839.658Z" fill="#076E43"/>
<path d="M797.565 400.77C793.749 396.952 790.648 391.701 790.648 389.315C790.648 386.689 806.15 369.029 827.614 347.312C855.279 319.15 865.772 309.843 870.304 309.843C877.22 309.843 888.429 322.014 888.429 329.651C888.429 337.049 817.598 407.691 810.205 407.691C807.104 407.691 801.38 404.589 797.565 400.77Z" fill="#076E43"/>
<path d="M224.238 398.146C215.414 389.078 217.56 385.02 233.301 379.054C255.242 370.701 268.359 356.621 268.359 341.347C268.359 326.073 252.857 322.732 220.899 331.323C191.565 339.199 176.064 337.29 162.708 324.641C152.692 315.095 149.114 306.742 149.114 292.423C149.114 274.285 154.361 263.307 171.532 246.362C189.18 229.418 206.113 219.872 213.029 223.69C218.991 226.793 226.146 237.771 224.715 241.589C224 243.26 217.561 247.555 210.406 251.135C185.603 263.068 175.11 283.354 187.272 295.525C193.473 301.73 203.013 301.491 225.431 295.286C261.442 285.024 281.476 289.081 295.785 310.083C301.509 317.959 302.701 322.254 302.701 334.426C302.701 344.449 301.27 351.847 298.408 357.337C288.153 376.668 251.664 405.306 237.117 405.306C233.539 405.306 228.293 402.442 224.238 398.146ZM201.105 317.72C198.72 317.243 194.427 317.243 191.565 317.72C188.465 318.197 190.373 318.674 195.62 318.674C200.866 318.913 203.251 318.436 201.105 317.72ZM261.681 307.935C258.819 306.026 244.51 306.98 244.51 308.89C244.51 309.367 249.041 309.844 254.765 309.844C260.727 309.844 263.589 308.89 261.681 307.935Z" fill="#076E43"/>
<path d="M746.051 357.575C735.558 351.37 732.934 345.643 736.75 338.244C738.42 335.142 747.721 321.061 757.499 306.981C767.277 292.9 785.879 265.693 798.757 246.601C811.874 227.509 824.514 210.326 826.66 208.178C835.485 200.302 857.187 213.428 853.61 224.645C851.94 230.134 772.047 347.552 763.699 357.098C757.737 363.542 755.829 363.542 746.051 357.575Z" fill="#076E43"/>
<path d="M353.019 321.541C343.718 318.916 335.371 311.279 331.317 301.255C322.97 281.208 330.601 263.787 354.212 249.945C376.868 236.58 380.446 233.716 380.446 228.704C380.446 226.079 377.822 222.261 374.483 220.113C366.375 214.862 355.166 217.249 339.902 227.75C326.07 237.296 320.823 237.296 317.485 228.227C315.577 222.738 316.054 220.59 320.823 215.578C330.124 205.794 355.404 194.577 370.906 193.384C397.378 191.474 407.395 201.498 424.804 248.751C431.959 268.082 437.683 285.981 437.683 288.607C437.683 295.289 418.365 303.881 411.688 300.301C404.533 296.482 402.625 297.198 394.278 306.506C381.638 320.348 366.852 325.837 353.019 321.541ZM384.261 290.993C397.617 282.879 400.717 263.548 389.508 256.627C384.977 253.524 368.76 259.968 362.32 267.366C356.358 273.81 357.074 285.743 363.513 291.232C370.429 296.721 374.96 296.721 384.261 290.993Z" fill="#076E43"/>
<path d="M685.239 321.058C681.662 319.388 676.654 315.33 673.792 311.751C669.022 305.546 668.068 305.307 653.997 306.5C641.596 307.693 637.542 306.977 628.718 302.204C603.438 288.84 603.438 258.531 628.718 241.109C635.872 236.097 638.496 235.62 652.328 236.813C660.914 237.529 671.884 238.961 676.654 239.677C689.532 241.825 697.641 239.2 697.641 233.233C697.641 220.107 685.955 212.232 662.106 210.084C647.558 208.413 646.366 207.936 646.366 202.686C646.366 199.344 648.751 195.049 652.328 192.662C657.575 188.605 659.96 188.366 673.792 190.514C706.942 195.765 726.26 211.277 728.167 234.188C728.883 244.45 726.975 252.803 716.958 282.157C710.281 301.488 703.603 318.91 702.172 320.819C698.833 324.877 693.825 324.877 685.239 321.058ZM679.277 281.68C686.909 273.805 687.863 263.304 681.185 259.724C678.562 258.531 670.692 257.337 663.299 257.337C652.567 257.337 649.466 258.292 646.604 262.588C641.596 269.747 641.835 274.52 647.797 282.157C654.951 291.226 670.453 290.988 679.277 281.68Z" fill="#076E43"/>
<path d="M905.843 305.072C892.488 299.583 889.626 281.684 900.835 273.331C906.558 269.035 907.989 269.035 914.667 271.661C922.299 274.763 928.976 284.548 928.976 292.662C928.976 301.492 915.382 308.891 905.843 305.072Z" fill="#076E43"/>
<path d="M507.56 286.218C502.075 283.831 500.883 280.728 479.18 219.394C472.025 199.347 466.302 180.016 466.779 176.436C467.494 170.709 468.448 170.231 479.657 169.516C488.72 169.038 492.536 169.754 495.397 173.095C497.544 175.482 503.029 190.517 507.56 206.746C516.146 236.577 521.393 247.794 526.639 247.794C529.501 247.794 542.618 208.655 542.618 200.541C542.618 199.109 544.765 191.949 547.626 184.551C551.204 175.243 554.304 170.47 558.358 169.038C566.229 165.936 581.73 169.516 582.684 174.289C583.638 178.584 547.865 278.581 544.049 282.876C540.71 286.456 514.238 288.843 507.56 286.218Z" fill="#076E43"/>
<path d="M634.436 900.036C620.365 898.365 581.492 891.683 559.312 887.149C530.217 880.944 513.046 876.17 454.377 857.078C418.604 845.384 347.057 811.972 332.748 800.278C330.84 798.846 327.501 796.937 325.593 796.221C317.962 793.596 291.728 771.879 271.456 751.593C250.231 730.591 237.591 710.783 233.775 692.168C232.344 684.77 235.206 677.371 239.737 677.371C240.691 677.371 246.177 686.679 251.9 697.896C257.624 709.112 266.448 723.432 271.695 729.398C286.243 745.627 319.631 774.265 333.463 781.902C340.38 785.72 356.12 794.551 368.521 801.71C390.701 814.359 465.348 849.203 470.356 849.203C471.787 849.203 482.996 852.544 494.92 856.362C524.97 866.147 528.786 865.908 538.325 853.26C575.53 804.336 593.178 710.544 578.63 637.039C575.53 622.242 571.714 606.252 569.567 601.718C567.659 597.184 566.705 592.888 567.421 592.172C573.622 585.967 605.579 621.765 615.357 645.869C621.081 659.472 626.566 672.36 633.244 686.679C638.014 697.418 647.553 694.316 674.979 672.598C702.167 650.881 738.179 636.8 765.605 636.8C781.822 637.039 781.822 637.039 756.781 651.119C734.602 663.529 688.573 711.26 645.168 766.628C628.951 787.391 595.324 821.041 571.475 840.372C557.404 851.828 554.543 855.408 554.543 861.135C554.543 871.397 562.651 874.5 603.433 879.034C683.803 888.342 743.903 874.023 763.459 840.85C770.136 829.394 772.76 808.87 769.659 794.789C766.321 780.709 769.898 779.993 781.107 792.164C795.655 808.154 802.571 823.905 802.571 841.566C802.571 855.646 802.094 857.078 793.031 866.863C782.061 878.796 763.936 888.103 745.095 891.922C737.94 893.354 726.254 896.217 719.1 898.127C707.175 901.468 655.9 902.661 634.436 900.036Z" fill="#CF122C"/>
<path d="M653.041 609.593C619.891 593.842 605.105 555.18 619.414 521.768C623.707 511.506 624.184 508.403 622.038 500.051C620.607 494.561 619.891 489.311 620.368 488.356C622.038 485.731 630.385 485.97 636.109 489.072C639.686 490.982 645.887 490.743 661.15 487.641C677.606 484.299 683.329 484.061 692.392 486.447C709.563 490.743 724.111 501.244 733.412 516.279C740.328 527.018 743.429 529.882 751.299 532.03C771.093 537.519 773.001 542.054 758.692 549.452C749.629 554.225 736.512 571.647 736.035 579.284C735.558 585.966 723.634 598.376 710.517 606.013C691.677 616.753 670.689 618.184 653.041 609.593Z" fill="#CF122C"/>
<path d="M812.113 577.618C808.297 576.664 789.456 557.094 785.64 550.412C782.063 543.968 791.841 542.775 807.343 547.787C817.359 551.128 820.937 553.514 822.606 558.287C826.661 569.981 820.937 580.482 812.113 577.618Z" fill="#CF122C"/>
<path d="M560.028 487.169C555.497 485.498 556.213 473.327 561.221 469.031C568.376 462.587 581.016 464.019 592.701 472.372C599.379 477.145 602.003 480.486 600.333 482.157C595.325 487.168 568.137 490.51 560.028 487.169Z" fill="#CF122C"/>
<path d="M804.482 394.805C802.097 393.134 800.189 390.747 800.189 389.554C800.189 388.361 815.691 371.894 834.532 353.279C865.535 322.254 869.351 319.151 873.883 321.538C876.744 323.208 878.891 325.595 878.891 327.265C878.652 330.606 813.783 398.146 810.683 398.146C809.491 398.146 806.629 396.475 804.482 394.805Z" fill="#076E43"/>
<path d="M234.256 394.327C230.917 390.747 232.825 388.599 244.034 382.872C259.058 375.235 274.799 359.245 278.137 348.267C280.284 340.869 280.045 338.005 276.945 331.8C269.075 316.764 250.234 313.185 222.808 321.538C193.712 330.368 182.265 329.174 169.387 316.287C152.454 299.581 152.692 280.012 169.625 260.203C180.119 247.793 205.398 230.133 210.168 232.042C215.892 234.19 213.984 238.247 205.637 241.827C198.005 244.929 184.411 258.055 176.78 269.272C174.633 272.375 172.964 279.773 172.964 285.501C172.964 303.161 187.75 312.707 208.499 308.173C214.699 306.98 229.009 303.877 240.456 301.252L261.443 296.717L272.652 302.684C291.493 312.707 299.124 330.845 292.208 349.221C290.062 354.949 266.69 380.008 254.527 389.315C248.326 394.088 236.879 396.952 234.256 394.327Z" fill="#076E43"/>
<path d="M747.964 345.882C745.818 342.063 748.441 336.813 762.75 316.05C772.051 302.208 782.068 287.173 784.691 282.877C794.469 266.887 826.188 222.497 830.958 218.202C835.013 214.622 836.443 214.383 839.544 216.77C845.506 221.781 843.837 226.077 828.096 247.556C819.749 258.773 800.909 286.695 785.884 309.368C758.219 350.893 753.211 355.666 747.964 345.882Z" fill="#076E43"/>
<path d="M344.438 305.313C338.714 299.586 337.521 296.245 337.521 287.414C337.521 278.584 338.952 275.004 344.438 269.038L351.592 261.64L350.161 274.527C348.969 285.982 349.684 288.13 355.408 295.051C359.939 300.302 364.709 303.166 371.148 304.12C387.366 306.745 381.165 312.234 362.086 312.234C353.5 312.234 350.161 310.802 344.438 305.313Z" fill="#076E43"/>
<path d="M684.76 308.411C679.275 302.922 680.229 294.808 686.907 288.364C690.246 285.262 694.061 278.58 695.731 273.806C697.877 266.17 697.639 263.783 694.3 258.533C691.915 254.953 690.484 251.85 690.961 251.373C691.438 251.134 694.061 249.464 697.162 248.032C704.793 243.975 710.279 234.667 708.371 228.462C705.747 220.825 690.723 207.222 682.852 205.551C679.275 204.835 675.459 203.165 674.505 201.733C672.12 197.914 690.484 202.21 700.978 207.938C712.187 214.143 719.58 225.598 719.58 236.815C719.58 244.929 704.793 293.615 698.593 305.547C694.777 312.946 690.246 314.139 684.76 308.411Z" fill="#076E43"/>
<path d="M638.014 297.674C634.675 296.242 629.19 292.423 625.612 289.082C620.365 284.07 618.935 280.49 618.935 272.137C618.935 263.307 620.365 260.205 627.043 253.522C632.051 248.511 637.537 245.408 641.353 245.408C649.223 245.408 649.223 246.601 640.399 256.625C630.621 267.603 630.621 278.343 640.637 288.127C644.691 292.184 648.984 295.526 650.177 295.526C651.608 295.526 651.846 296.719 651.131 297.912C649.223 300.776 645.884 300.776 638.014 297.674Z" fill="#076E43"/>
<path d="M902.734 290.994C899.634 285.027 902.019 278.822 907.743 278.822C912.751 278.822 920.621 289.323 918.236 293.142C915.613 297.199 905.358 295.767 902.734 290.994Z" fill="#076E43"/>
<path d="M411.694 288.125C408.593 285.261 406.685 280.488 406.685 275.715C406.685 261.634 401.915 249.94 394.761 245.883C389.276 242.542 388.083 240.871 389.276 235.382C391.422 224.165 388.322 217.244 378.067 211.994C373.058 209.369 366.142 207.221 363.28 206.982C353.025 206.744 366.142 202.686 378.305 202.686C394.522 202.448 401.677 211.039 416.225 249.224C422.902 266.168 427.911 282.158 427.672 284.545C426.48 291.705 417.656 293.614 411.694 288.125Z" fill="#076E43"/>
<path d="M511.138 275.957C506.606 272.616 475.364 183.598 477.272 180.495C477.988 179.302 480.85 178.586 483.95 178.586C489.912 178.586 493.49 184.075 497.305 198.872C509.23 247.557 515.43 263.07 524.493 265.933C530.217 267.843 537.848 259.49 537.848 251.137C537.848 247.796 539.995 239.204 542.618 231.806C545.242 224.169 547.388 216.293 547.388 213.907C547.388 211.759 549.534 203.883 552.396 196.485C557.166 183.359 564.798 175.961 569.09 180.257C570.998 182.166 542.857 272.138 539.279 275.957C536.179 278.821 514.953 279.059 511.138 275.957Z" fill="#076E43"/>
</svg>
